G04 #@! TF.GenerationSoftware,KiCad,Pcbnew,(2017-10-17 revision 537804b)-master*
G04 #@! TF.CreationDate,2017-12-04T11:47:58+01:00*
G04 #@! TF.ProjectId,TrainAutomator,547261696E4175746F6D61746F722E6B,rev?*
G04 #@! TF.SameCoordinates,Original*
G04 #@! TF.FileFunction,Copper,L2,Bot,Signal*
G04 #@! TF.FilePolarity,Positive*
%FSLAX46Y46*%
G04 Gerber Fmt 4.6, Leading zero omitted, Abs format (unit mm)*
G04 Created by KiCad (PCBNEW (2017-10-17 revision 537804b)-master) date 2017 December 04, Monday 11:47:58*
%MOMM*%
%LPD*%
G01*
G04 APERTURE LIST*
%ADD10C,1.524000*%
%ADD11R,1.524000X1.524000*%
%ADD12C,2.400000*%
%ADD13R,2.400000X2.400000*%
%ADD14O,1.350000X1.350000*%
%ADD15R,1.350000X1.350000*%
%ADD16R,1.200000X1.700000*%
%ADD17O,1.200000X1.700000*%
%ADD18C,0.100000*%
%ADD19C,4.000000*%
%ADD20C,1.500000*%
%ADD21C,0.800000*%
%ADD22C,0.250000*%
%ADD23C,0.254000*%
G04 APERTURE END LIST*
D10*
X89535000Y-36195000D03*
X92075000Y-36195000D03*
X94615000Y-36195000D03*
X97155000Y-36195000D03*
X99695000Y-36195000D03*
X102235000Y-36195000D03*
X104775000Y-36195000D03*
X107315000Y-36195000D03*
X107315000Y-53975000D03*
X104775000Y-53975000D03*
X102235000Y-53975000D03*
X99695000Y-53975000D03*
X97155000Y-53975000D03*
X94615000Y-53975000D03*
X92075000Y-53975000D03*
D11*
X89535000Y-53975000D03*
D12*
X100005000Y-17780000D03*
D13*
X103505000Y-17780000D03*
X93980000Y-17780000D03*
D12*
X90480000Y-17780000D03*
D14*
X15875000Y-46260000D03*
D15*
X15875000Y-48260000D03*
D16*
X62865000Y-20320000D03*
D17*
X60865000Y-20320000D03*
X58865000Y-20320000D03*
X77820000Y-20320000D03*
X79820000Y-20320000D03*
X81820000Y-20320000D03*
D16*
X83820000Y-20320000D03*
D17*
X49340000Y-20320000D03*
X51340000Y-20320000D03*
D16*
X53340000Y-20320000D03*
X43815000Y-20320000D03*
D17*
X41815000Y-20320000D03*
X39815000Y-20320000D03*
X30290000Y-20320000D03*
X32290000Y-20320000D03*
D16*
X34290000Y-20320000D03*
X24765000Y-20320000D03*
D17*
X22765000Y-20320000D03*
X20765000Y-20320000D03*
X68390000Y-20320000D03*
X70390000Y-20320000D03*
D16*
X72390000Y-20320000D03*
D11*
X69469000Y-30988000D03*
D10*
X72009000Y-30988000D03*
X74549000Y-30988000D03*
X77089000Y-30988000D03*
D11*
X54610000Y-26670000D03*
D10*
X52070000Y-26670000D03*
X49530000Y-26670000D03*
X46990000Y-26670000D03*
X44450000Y-26670000D03*
X41910000Y-26670000D03*
X39370000Y-26670000D03*
X36830000Y-26670000D03*
X34290000Y-26670000D03*
X31750000Y-26670000D03*
X29210000Y-26670000D03*
X26670000Y-26670000D03*
X24130000Y-26670000D03*
X21590000Y-26670000D03*
X19050000Y-26670000D03*
X19050000Y-41910000D03*
X21590000Y-41910000D03*
X24130000Y-41910000D03*
X26670000Y-41910000D03*
X29210000Y-41910000D03*
X31750000Y-41910000D03*
X34290000Y-41910000D03*
X36830000Y-41910000D03*
X39370000Y-41910000D03*
X41910000Y-41910000D03*
X44450000Y-41910000D03*
X46990000Y-41910000D03*
X49530000Y-41910000D03*
X52070000Y-41910000D03*
X54610000Y-41910000D03*
D18*
G36*
X25183345Y-53849835D02*
X25220329Y-53855321D01*
X25256598Y-53864406D01*
X25291802Y-53877002D01*
X25325602Y-53892988D01*
X25357672Y-53912210D01*
X25387704Y-53934483D01*
X25415408Y-53959592D01*
X25440517Y-53987296D01*
X25462790Y-54017328D01*
X25482012Y-54049398D01*
X25497998Y-54083198D01*
X25510594Y-54118402D01*
X25519679Y-54154671D01*
X25525165Y-54191655D01*
X25527000Y-54229000D01*
X25527000Y-54991000D01*
X25525165Y-55028345D01*
X25519679Y-55065329D01*
X25510594Y-55101598D01*
X25497998Y-55136802D01*
X25482012Y-55170602D01*
X25462790Y-55202672D01*
X25440517Y-55232704D01*
X25415408Y-55260408D01*
X25387704Y-55285517D01*
X25357672Y-55307790D01*
X25325602Y-55327012D01*
X25291802Y-55342998D01*
X25256598Y-55355594D01*
X25220329Y-55364679D01*
X25183345Y-55370165D01*
X25146000Y-55372000D01*
X24384000Y-55372000D01*
X24346655Y-55370165D01*
X24309671Y-55364679D01*
X24273402Y-55355594D01*
X24238198Y-55342998D01*
X24204398Y-55327012D01*
X24172328Y-55307790D01*
X24142296Y-55285517D01*
X24114592Y-55260408D01*
X24089483Y-55232704D01*
X24067210Y-55202672D01*
X24047988Y-55170602D01*
X24032002Y-55136802D01*
X24019406Y-55101598D01*
X24010321Y-55065329D01*
X24004835Y-55028345D01*
X24003000Y-54991000D01*
X24003000Y-54229000D01*
X24004835Y-54191655D01*
X24010321Y-54154671D01*
X24019406Y-54118402D01*
X24032002Y-54083198D01*
X24047988Y-54049398D01*
X24067210Y-54017328D01*
X24089483Y-53987296D01*
X24114592Y-53959592D01*
X24142296Y-53934483D01*
X24172328Y-53912210D01*
X24204398Y-53892988D01*
X24238198Y-53877002D01*
X24273402Y-53864406D01*
X24309671Y-53855321D01*
X24346655Y-53849835D01*
X24384000Y-53848000D01*
X25146000Y-53848000D01*
X25183345Y-53849835D01*
X25183345Y-53849835D01*
G37*
D10*
X24765000Y-54610000D03*
D18*
G36*
X25183345Y-55754835D02*
X25220329Y-55760321D01*
X25256598Y-55769406D01*
X25291802Y-55782002D01*
X25325602Y-55797988D01*
X25357672Y-55817210D01*
X25387704Y-55839483D01*
X25415408Y-55864592D01*
X25440517Y-55892296D01*
X25462790Y-55922328D01*
X25482012Y-55954398D01*
X25497998Y-55988198D01*
X25510594Y-56023402D01*
X25519679Y-56059671D01*
X25525165Y-56096655D01*
X25527000Y-56134000D01*
X25527000Y-56896000D01*
X25525165Y-56933345D01*
X25519679Y-56970329D01*
X25510594Y-57006598D01*
X25497998Y-57041802D01*
X25482012Y-57075602D01*
X25462790Y-57107672D01*
X25440517Y-57137704D01*
X25415408Y-57165408D01*
X25387704Y-57190517D01*
X25357672Y-57212790D01*
X25325602Y-57232012D01*
X25291802Y-57247998D01*
X25256598Y-57260594D01*
X25220329Y-57269679D01*
X25183345Y-57275165D01*
X25146000Y-57277000D01*
X24384000Y-57277000D01*
X24346655Y-57275165D01*
X24309671Y-57269679D01*
X24273402Y-57260594D01*
X24238198Y-57247998D01*
X24204398Y-57232012D01*
X24172328Y-57212790D01*
X24142296Y-57190517D01*
X24114592Y-57165408D01*
X24089483Y-57137704D01*
X24067210Y-57107672D01*
X24047988Y-57075602D01*
X24032002Y-57041802D01*
X24019406Y-57006598D01*
X24010321Y-56970329D01*
X24004835Y-56933345D01*
X24003000Y-56896000D01*
X24003000Y-56134000D01*
X24004835Y-56096655D01*
X24010321Y-56059671D01*
X24019406Y-56023402D01*
X24032002Y-55988198D01*
X24047988Y-55954398D01*
X24067210Y-55922328D01*
X24089483Y-55892296D01*
X24114592Y-55864592D01*
X24142296Y-55839483D01*
X24172328Y-55817210D01*
X24204398Y-55797988D01*
X24238198Y-55782002D01*
X24273402Y-55769406D01*
X24309671Y-55760321D01*
X24346655Y-55754835D01*
X24384000Y-55753000D01*
X25146000Y-55753000D01*
X25183345Y-55754835D01*
X25183345Y-55754835D01*
G37*
D10*
X24765000Y-56515000D03*
D18*
G36*
X25183345Y-57659835D02*
X25220329Y-57665321D01*
X25256598Y-57674406D01*
X25291802Y-57687002D01*
X25325602Y-57702988D01*
X25357672Y-57722210D01*
X25387704Y-57744483D01*
X25415408Y-57769592D01*
X25440517Y-57797296D01*
X25462790Y-57827328D01*
X25482012Y-57859398D01*
X25497998Y-57893198D01*
X25510594Y-57928402D01*
X25519679Y-57964671D01*
X25525165Y-58001655D01*
X25527000Y-58039000D01*
X25527000Y-58801000D01*
X25525165Y-58838345D01*
X25519679Y-58875329D01*
X25510594Y-58911598D01*
X25497998Y-58946802D01*
X25482012Y-58980602D01*
X25462790Y-59012672D01*
X25440517Y-59042704D01*
X25415408Y-59070408D01*
X25387704Y-59095517D01*
X25357672Y-59117790D01*
X25325602Y-59137012D01*
X25291802Y-59152998D01*
X25256598Y-59165594D01*
X25220329Y-59174679D01*
X25183345Y-59180165D01*
X25146000Y-59182000D01*
X24384000Y-59182000D01*
X24346655Y-59180165D01*
X24309671Y-59174679D01*
X24273402Y-59165594D01*
X24238198Y-59152998D01*
X24204398Y-59137012D01*
X24172328Y-59117790D01*
X24142296Y-59095517D01*
X24114592Y-59070408D01*
X24089483Y-59042704D01*
X24067210Y-59012672D01*
X24047988Y-58980602D01*
X24032002Y-58946802D01*
X24019406Y-58911598D01*
X24010321Y-58875329D01*
X24004835Y-58838345D01*
X24003000Y-58801000D01*
X24003000Y-58039000D01*
X24004835Y-58001655D01*
X24010321Y-57964671D01*
X24019406Y-57928402D01*
X24032002Y-57893198D01*
X24047988Y-57859398D01*
X24067210Y-57827328D01*
X24089483Y-57797296D01*
X24114592Y-57769592D01*
X24142296Y-57744483D01*
X24172328Y-57722210D01*
X24204398Y-57702988D01*
X24238198Y-57687002D01*
X24273402Y-57674406D01*
X24309671Y-57665321D01*
X24346655Y-57659835D01*
X24384000Y-57658000D01*
X25146000Y-57658000D01*
X25183345Y-57659835D01*
X25183345Y-57659835D01*
G37*
D10*
X24765000Y-58420000D03*
D18*
G36*
X28993345Y-57659835D02*
X29030329Y-57665321D01*
X29066598Y-57674406D01*
X29101802Y-57687002D01*
X29135602Y-57702988D01*
X29167672Y-57722210D01*
X29197704Y-57744483D01*
X29225408Y-57769592D01*
X29250517Y-57797296D01*
X29272790Y-57827328D01*
X29292012Y-57859398D01*
X29307998Y-57893198D01*
X29320594Y-57928402D01*
X29329679Y-57964671D01*
X29335165Y-58001655D01*
X29337000Y-58039000D01*
X29337000Y-58801000D01*
X29335165Y-58838345D01*
X29329679Y-58875329D01*
X29320594Y-58911598D01*
X29307998Y-58946802D01*
X29292012Y-58980602D01*
X29272790Y-59012672D01*
X29250517Y-59042704D01*
X29225408Y-59070408D01*
X29197704Y-59095517D01*
X29167672Y-59117790D01*
X29135602Y-59137012D01*
X29101802Y-59152998D01*
X29066598Y-59165594D01*
X29030329Y-59174679D01*
X28993345Y-59180165D01*
X28956000Y-59182000D01*
X28194000Y-59182000D01*
X28156655Y-59180165D01*
X28119671Y-59174679D01*
X28083402Y-59165594D01*
X28048198Y-59152998D01*
X28014398Y-59137012D01*
X27982328Y-59117790D01*
X27952296Y-59095517D01*
X27924592Y-59070408D01*
X27899483Y-59042704D01*
X27877210Y-59012672D01*
X27857988Y-58980602D01*
X27842002Y-58946802D01*
X27829406Y-58911598D01*
X27820321Y-58875329D01*
X27814835Y-58838345D01*
X27813000Y-58801000D01*
X27813000Y-58039000D01*
X27814835Y-58001655D01*
X27820321Y-57964671D01*
X27829406Y-57928402D01*
X27842002Y-57893198D01*
X27857988Y-57859398D01*
X27877210Y-57827328D01*
X27899483Y-57797296D01*
X27924592Y-57769592D01*
X27952296Y-57744483D01*
X27982328Y-57722210D01*
X28014398Y-57702988D01*
X28048198Y-57687002D01*
X28083402Y-57674406D01*
X28119671Y-57665321D01*
X28156655Y-57659835D01*
X28194000Y-57658000D01*
X28956000Y-57658000D01*
X28993345Y-57659835D01*
X28993345Y-57659835D01*
G37*
D10*
X28575000Y-58420000D03*
D18*
G36*
X28993345Y-55754835D02*
X29030329Y-55760321D01*
X29066598Y-55769406D01*
X29101802Y-55782002D01*
X29135602Y-55797988D01*
X29167672Y-55817210D01*
X29197704Y-55839483D01*
X29225408Y-55864592D01*
X29250517Y-55892296D01*
X29272790Y-55922328D01*
X29292012Y-55954398D01*
X29307998Y-55988198D01*
X29320594Y-56023402D01*
X29329679Y-56059671D01*
X29335165Y-56096655D01*
X29337000Y-56134000D01*
X29337000Y-56896000D01*
X29335165Y-56933345D01*
X29329679Y-56970329D01*
X29320594Y-57006598D01*
X29307998Y-57041802D01*
X29292012Y-57075602D01*
X29272790Y-57107672D01*
X29250517Y-57137704D01*
X29225408Y-57165408D01*
X29197704Y-57190517D01*
X29167672Y-57212790D01*
X29135602Y-57232012D01*
X29101802Y-57247998D01*
X29066598Y-57260594D01*
X29030329Y-57269679D01*
X28993345Y-57275165D01*
X28956000Y-57277000D01*
X28194000Y-57277000D01*
X28156655Y-57275165D01*
X28119671Y-57269679D01*
X28083402Y-57260594D01*
X28048198Y-57247998D01*
X28014398Y-57232012D01*
X27982328Y-57212790D01*
X27952296Y-57190517D01*
X27924592Y-57165408D01*
X27899483Y-57137704D01*
X27877210Y-57107672D01*
X27857988Y-57075602D01*
X27842002Y-57041802D01*
X27829406Y-57006598D01*
X27820321Y-56970329D01*
X27814835Y-56933345D01*
X27813000Y-56896000D01*
X27813000Y-56134000D01*
X27814835Y-56096655D01*
X27820321Y-56059671D01*
X27829406Y-56023402D01*
X27842002Y-55988198D01*
X27857988Y-55954398D01*
X27877210Y-55922328D01*
X27899483Y-55892296D01*
X27924592Y-55864592D01*
X27952296Y-55839483D01*
X27982328Y-55817210D01*
X28014398Y-55797988D01*
X28048198Y-55782002D01*
X28083402Y-55769406D01*
X28119671Y-55760321D01*
X28156655Y-55754835D01*
X28194000Y-55753000D01*
X28956000Y-55753000D01*
X28993345Y-55754835D01*
X28993345Y-55754835D01*
G37*
D10*
X28575000Y-56515000D03*
D18*
G36*
X28993345Y-53849835D02*
X29030329Y-53855321D01*
X29066598Y-53864406D01*
X29101802Y-53877002D01*
X29135602Y-53892988D01*
X29167672Y-53912210D01*
X29197704Y-53934483D01*
X29225408Y-53959592D01*
X29250517Y-53987296D01*
X29272790Y-54017328D01*
X29292012Y-54049398D01*
X29307998Y-54083198D01*
X29320594Y-54118402D01*
X29329679Y-54154671D01*
X29335165Y-54191655D01*
X29337000Y-54229000D01*
X29337000Y-54991000D01*
X29335165Y-55028345D01*
X29329679Y-55065329D01*
X29320594Y-55101598D01*
X29307998Y-55136802D01*
X29292012Y-55170602D01*
X29272790Y-55202672D01*
X29250517Y-55232704D01*
X29225408Y-55260408D01*
X29197704Y-55285517D01*
X29167672Y-55307790D01*
X29135602Y-55327012D01*
X29101802Y-55342998D01*
X29066598Y-55355594D01*
X29030329Y-55364679D01*
X28993345Y-55370165D01*
X28956000Y-55372000D01*
X28194000Y-55372000D01*
X28156655Y-55370165D01*
X28119671Y-55364679D01*
X28083402Y-55355594D01*
X28048198Y-55342998D01*
X28014398Y-55327012D01*
X27982328Y-55307790D01*
X27952296Y-55285517D01*
X27924592Y-55260408D01*
X27899483Y-55232704D01*
X27877210Y-55202672D01*
X27857988Y-55170602D01*
X27842002Y-55136802D01*
X27829406Y-55101598D01*
X27820321Y-55065329D01*
X27814835Y-55028345D01*
X27813000Y-54991000D01*
X27813000Y-54229000D01*
X27814835Y-54191655D01*
X27820321Y-54154671D01*
X27829406Y-54118402D01*
X27842002Y-54083198D01*
X27857988Y-54049398D01*
X27877210Y-54017328D01*
X27899483Y-53987296D01*
X27924592Y-53959592D01*
X27952296Y-53934483D01*
X27982328Y-53912210D01*
X28014398Y-53892988D01*
X28048198Y-53877002D01*
X28083402Y-53864406D01*
X28119671Y-53855321D01*
X28156655Y-53849835D01*
X28194000Y-53848000D01*
X28956000Y-53848000D01*
X28993345Y-53849835D01*
X28993345Y-53849835D01*
G37*
D10*
X28575000Y-54610000D03*
D19*
X32670000Y-52705000D03*
X20670000Y-52705000D03*
D20*
X26160000Y-50405000D03*
X27180000Y-47865000D03*
X28200000Y-50405000D03*
X29220000Y-47865000D03*
X25140000Y-47865000D03*
X24120000Y-50405000D03*
D21*
X34925000Y-48254999D03*
X34925000Y-45720000D03*
X34884985Y-46949985D03*
X56375683Y-38088683D03*
X55878816Y-39013693D03*
X74506514Y-34666516D03*
X48754228Y-49530020D03*
X100965000Y-24130000D03*
X42525919Y-53994081D03*
X60325000Y-49530000D03*
X54469228Y-49530000D03*
X28575000Y-52705000D03*
X30480000Y-58420000D03*
D22*
X54610000Y-26670000D02*
X54610000Y-28448000D01*
X34925000Y-48133000D02*
X34925000Y-48254999D01*
X54610000Y-28448000D02*
X58150022Y-31988022D01*
X58150022Y-31988022D02*
X58150022Y-37301776D01*
X58150022Y-37301776D02*
X58150706Y-37302460D01*
X58150706Y-37302460D02*
X58150705Y-38874907D01*
X58150020Y-43594224D02*
X56024244Y-45720000D01*
X56024244Y-45720000D02*
X37338000Y-45720000D01*
X37338000Y-45720000D02*
X34925000Y-48133000D01*
X58150705Y-38874907D02*
X58150022Y-38875590D01*
X58150022Y-38875590D02*
X58150020Y-43594224D01*
X35425011Y-45219989D02*
X35324999Y-45320001D01*
X57650010Y-43387112D02*
X55817133Y-45219989D01*
X57650695Y-38667795D02*
X57650010Y-38668480D01*
X57650695Y-37509571D02*
X57650695Y-38667795D01*
X57650010Y-32250010D02*
X57650012Y-37508888D01*
X52070000Y-26670000D02*
X57650010Y-32250010D01*
X57650010Y-38668480D02*
X57650010Y-43387112D01*
X55817133Y-45219989D02*
X35425011Y-45219989D01*
X35324999Y-45320001D02*
X34925000Y-45720000D01*
X57650012Y-37508888D02*
X57650695Y-37509571D01*
X53521878Y-28829000D02*
X57149999Y-32457121D01*
X57149999Y-32457121D02*
X57149999Y-37715997D01*
X34149999Y-46214999D02*
X34484986Y-46549986D01*
X41910000Y-26670000D02*
X44069000Y-28829000D01*
X44069000Y-28829000D02*
X53521878Y-28829000D01*
X34778018Y-44719980D02*
X34149999Y-45347999D01*
X34149999Y-45347999D02*
X34149999Y-46214999D01*
X57149999Y-37715997D02*
X57150684Y-37716682D01*
X57150684Y-37716682D02*
X57150684Y-38460684D01*
X57150684Y-38460684D02*
X57149999Y-38461369D01*
X57149999Y-38461369D02*
X57149999Y-43180001D01*
X57149999Y-43180001D02*
X55610020Y-44719980D01*
X55610020Y-44719980D02*
X34778018Y-44719980D01*
X34484986Y-46549986D02*
X34884985Y-46949985D01*
X25026989Y-29344989D02*
X53330747Y-29344989D01*
X24130000Y-28448000D02*
X25026989Y-29344989D01*
X53330747Y-29344989D02*
X56388000Y-32402242D01*
X56388000Y-32402242D02*
X56388000Y-38076366D01*
X24130000Y-26670000D02*
X24130000Y-28448000D01*
X56388000Y-38076366D02*
X56375683Y-38088683D01*
X21590000Y-26670000D02*
X21590000Y-27747630D01*
X21590000Y-27747630D02*
X23687370Y-29845000D01*
X23687370Y-29845000D02*
X53123638Y-29845000D01*
X53123638Y-29845000D02*
X55600682Y-32322044D01*
X55600682Y-32322044D02*
X55600682Y-38460684D01*
X55600682Y-38460684D02*
X55878816Y-38738818D01*
X55878816Y-38738818D02*
X55878816Y-39013693D01*
X37545110Y-46220010D02*
X35700001Y-48065119D01*
X56231354Y-46220010D02*
X37545110Y-46220010D01*
X58650033Y-43801333D02*
X56231354Y-46220010D01*
X58650033Y-39082701D02*
X58650033Y-43801333D01*
X58650715Y-39082019D02*
X58650033Y-39082701D01*
X58650033Y-37094665D02*
X58650716Y-37095350D01*
X58650033Y-36091967D02*
X58650033Y-37094665D01*
X72390000Y-22352000D02*
X58650033Y-36091967D01*
X58650716Y-37095350D02*
X58650715Y-39082019D01*
X72390000Y-20320000D02*
X72390000Y-22352000D01*
X35700001Y-48627000D02*
X35297001Y-49030000D01*
X35700001Y-48065119D02*
X35700001Y-48627000D01*
X35297001Y-49030000D02*
X33790000Y-49030000D01*
X33790000Y-49030000D02*
X27431999Y-42671999D01*
X27431999Y-42671999D02*
X26670000Y-41910000D01*
X74549000Y-34624030D02*
X74506514Y-34666516D01*
X74549000Y-30988000D02*
X74549000Y-34624030D01*
X79820000Y-20320000D02*
X79820000Y-25717000D01*
X79820000Y-25717000D02*
X74549000Y-30988000D01*
X27180000Y-47865000D02*
X25765001Y-49279999D01*
X25765001Y-49279999D02*
X23579999Y-49279999D01*
X23579999Y-49279999D02*
X22994999Y-49864999D01*
X22994999Y-49864999D02*
X22994999Y-51514997D01*
X22994999Y-51514997D02*
X23627990Y-52147988D01*
X23627990Y-52147988D02*
X23627990Y-55377990D01*
X23627990Y-55377990D02*
X24765000Y-56515000D01*
X28575000Y-56515000D02*
X29712010Y-55377990D01*
X29712010Y-55377990D02*
X29712010Y-52695008D01*
X29712010Y-52695008D02*
X28947001Y-51929999D01*
X28947001Y-51929999D02*
X27684999Y-51929999D01*
X27684999Y-51929999D02*
X26909999Y-51154999D01*
X26909999Y-51154999D02*
X26160000Y-50405000D01*
X17560001Y-41494999D02*
X17560001Y-47499999D01*
X17560001Y-47499999D02*
X16800000Y-48260000D01*
X16800000Y-48260000D02*
X15875000Y-48260000D01*
X47625000Y-41910000D02*
X46487999Y-40772999D01*
X46487999Y-40772999D02*
X18282001Y-40772999D01*
X18282001Y-40772999D02*
X17560001Y-41494999D01*
X28575000Y-52705000D02*
X28575000Y-54610000D01*
X24765000Y-54610000D02*
X28575000Y-54610000D01*
X28575000Y-58420000D02*
X30480000Y-58420000D01*
X24765000Y-58420000D02*
X28575000Y-58420000D01*
D23*
G36*
X110689225Y-12854028D02*
X110858120Y-12966879D01*
X110970972Y-13135775D01*
X111025000Y-13407390D01*
X111025000Y-60887610D01*
X110970972Y-61159225D01*
X110858120Y-61328121D01*
X110689225Y-61440972D01*
X110417610Y-61495000D01*
X13407390Y-61495000D01*
X13135775Y-61440972D01*
X12966879Y-61328120D01*
X12854028Y-61159225D01*
X12800000Y-60887610D01*
X12800000Y-59055000D01*
X13110097Y-59055000D01*
X13272226Y-59870079D01*
X13733931Y-60561069D01*
X14424921Y-61022774D01*
X15240000Y-61184903D01*
X16055079Y-61022774D01*
X16746069Y-60561069D01*
X17207774Y-59870079D01*
X17369903Y-59055000D01*
X17207774Y-58239921D01*
X16746069Y-57548931D01*
X16055079Y-57087226D01*
X15240000Y-56925097D01*
X14424921Y-57087226D01*
X13733931Y-57548931D01*
X13272226Y-58239921D01*
X13110097Y-59055000D01*
X12800000Y-59055000D01*
X12800000Y-53226834D01*
X18034543Y-53226834D01*
X18434853Y-54195658D01*
X19175443Y-54937542D01*
X20143567Y-55339542D01*
X21191834Y-55340457D01*
X22160658Y-54940147D01*
X22867990Y-54234049D01*
X22867990Y-55377990D01*
X22925842Y-55668829D01*
X23090589Y-55915391D01*
X23355560Y-56180362D01*
X23355560Y-56896000D01*
X23433845Y-57289567D01*
X23552736Y-57467500D01*
X23433845Y-57645433D01*
X23355560Y-58039000D01*
X23355560Y-58801000D01*
X23433845Y-59194567D01*
X23656783Y-59528217D01*
X23990433Y-59751155D01*
X24384000Y-59829440D01*
X25146000Y-59829440D01*
X25539567Y-59751155D01*
X25873217Y-59528217D01*
X26096155Y-59194567D01*
X26099053Y-59180000D01*
X27240947Y-59180000D01*
X27243845Y-59194567D01*
X27466783Y-59528217D01*
X27800433Y-59751155D01*
X28194000Y-59829440D01*
X28956000Y-59829440D01*
X29349567Y-59751155D01*
X29683217Y-59528217D01*
X29859894Y-59263801D01*
X29892954Y-59296919D01*
X30273223Y-59454820D01*
X30684971Y-59455179D01*
X31065515Y-59297942D01*
X31308881Y-59055000D01*
X106455097Y-59055000D01*
X106617226Y-59870079D01*
X107078931Y-60561069D01*
X107769921Y-61022774D01*
X108585000Y-61184903D01*
X109400079Y-61022774D01*
X110091069Y-60561069D01*
X110552774Y-59870079D01*
X110714903Y-59055000D01*
X110552774Y-58239921D01*
X110091069Y-57548931D01*
X109400079Y-57087226D01*
X108585000Y-56925097D01*
X107769921Y-57087226D01*
X107078931Y-57548931D01*
X106617226Y-58239921D01*
X106455097Y-59055000D01*
X31308881Y-59055000D01*
X31356919Y-59007046D01*
X31514820Y-58626777D01*
X31515179Y-58215029D01*
X31357942Y-57834485D01*
X31067046Y-57543081D01*
X30686777Y-57385180D01*
X30275029Y-57384821D01*
X29894485Y-57542058D01*
X29860050Y-57576433D01*
X29787264Y-57467500D01*
X29906155Y-57289567D01*
X29984440Y-56896000D01*
X29984440Y-56180362D01*
X30249411Y-55915391D01*
X30414158Y-55668829D01*
X30472010Y-55377990D01*
X30472010Y-54232880D01*
X31175443Y-54937542D01*
X32143567Y-55339542D01*
X33191834Y-55340457D01*
X34160658Y-54940147D01*
X34841242Y-54260750D01*
X88138000Y-54260750D01*
X88138000Y-54863309D01*
X88234673Y-55096698D01*
X88413301Y-55275327D01*
X88646690Y-55372000D01*
X89249250Y-55372000D01*
X89408000Y-55213250D01*
X89408000Y-54102000D01*
X88296750Y-54102000D01*
X88138000Y-54260750D01*
X34841242Y-54260750D01*
X34902542Y-54199557D01*
X35304542Y-53231433D01*
X35304668Y-53086691D01*
X88138000Y-53086691D01*
X88138000Y-53689250D01*
X88296750Y-53848000D01*
X89408000Y-53848000D01*
X89408000Y-52736750D01*
X89662000Y-52736750D01*
X89662000Y-53848000D01*
X89682000Y-53848000D01*
X89682000Y-54102000D01*
X89662000Y-54102000D01*
X89662000Y-55213250D01*
X89820750Y-55372000D01*
X90423310Y-55372000D01*
X90656699Y-55275327D01*
X90835327Y-55096698D01*
X90932000Y-54863309D01*
X90932000Y-54807386D01*
X91282630Y-55158629D01*
X91795900Y-55371757D01*
X92351661Y-55372242D01*
X92865303Y-55160010D01*
X93258629Y-54767370D01*
X93344949Y-54559488D01*
X93429990Y-54765303D01*
X93822630Y-55158629D01*
X94335900Y-55371757D01*
X94891661Y-55372242D01*
X95405303Y-55160010D01*
X95798629Y-54767370D01*
X95884949Y-54559488D01*
X95969990Y-54765303D01*
X96362630Y-55158629D01*
X96875900Y-55371757D01*
X97431661Y-55372242D01*
X97945303Y-55160010D01*
X98338629Y-54767370D01*
X98424949Y-54559488D01*
X98509990Y-54765303D01*
X98902630Y-55158629D01*
X99415900Y-55371757D01*
X99971661Y-55372242D01*
X100485303Y-55160010D01*
X100878629Y-54767370D01*
X100964949Y-54559488D01*
X101049990Y-54765303D01*
X101442630Y-55158629D01*
X101955900Y-55371757D01*
X102511661Y-55372242D01*
X103025303Y-55160010D01*
X103418629Y-54767370D01*
X103504949Y-54559488D01*
X103589990Y-54765303D01*
X103982630Y-55158629D01*
X104495900Y-55371757D01*
X105051661Y-55372242D01*
X105565303Y-55160010D01*
X105958629Y-54767370D01*
X106044949Y-54559488D01*
X106129990Y-54765303D01*
X106522630Y-55158629D01*
X107035900Y-55371757D01*
X107591661Y-55372242D01*
X108105303Y-55160010D01*
X108498629Y-54767370D01*
X108711757Y-54254100D01*
X108712242Y-53698339D01*
X108500010Y-53184697D01*
X108107370Y-52791371D01*
X107594100Y-52578243D01*
X107038339Y-52577758D01*
X106524697Y-52789990D01*
X106131371Y-53182630D01*
X106045051Y-53390512D01*
X105960010Y-53184697D01*
X105567370Y-52791371D01*
X105054100Y-52578243D01*
X104498339Y-52577758D01*
X103984697Y-52789990D01*
X103591371Y-53182630D01*
X103505051Y-53390512D01*
X103420010Y-53184697D01*
X103027370Y-52791371D01*
X102514100Y-52578243D01*
X101958339Y-52577758D01*
X101444697Y-52789990D01*
X101051371Y-53182630D01*
X100965051Y-53390512D01*
X100880010Y-53184697D01*
X100487370Y-52791371D01*
X99974100Y-52578243D01*
X99418339Y-52577758D01*
X98904697Y-52789990D01*
X98511371Y-53182630D01*
X98425051Y-53390512D01*
X98340010Y-53184697D01*
X97947370Y-52791371D01*
X97434100Y-52578243D01*
X96878339Y-52577758D01*
X96364697Y-52789990D01*
X95971371Y-53182630D01*
X95885051Y-53390512D01*
X95800010Y-53184697D01*
X95407370Y-52791371D01*
X94894100Y-52578243D01*
X94338339Y-52577758D01*
X93824697Y-52789990D01*
X93431371Y-53182630D01*
X93345051Y-53390512D01*
X93260010Y-53184697D01*
X92867370Y-52791371D01*
X92354100Y-52578243D01*
X91798339Y-52577758D01*
X91284697Y-52789990D01*
X90932000Y-53142072D01*
X90932000Y-53086691D01*
X90835327Y-52853302D01*
X90656699Y-52674673D01*
X90423310Y-52578000D01*
X89820750Y-52578000D01*
X89662000Y-52736750D01*
X89408000Y-52736750D01*
X89249250Y-52578000D01*
X88646690Y-52578000D01*
X88413301Y-52674673D01*
X88234673Y-52853302D01*
X88138000Y-53086691D01*
X35304668Y-53086691D01*
X35305457Y-52183166D01*
X34905147Y-51214342D01*
X34164557Y-50472458D01*
X33196433Y-50070458D01*
X32148166Y-50069543D01*
X31179342Y-50469853D01*
X30437458Y-51210443D01*
X30104382Y-52012578D01*
X29484402Y-51392598D01*
X29296707Y-51267184D01*
X29373461Y-51190564D01*
X29584759Y-50681702D01*
X29585240Y-50130715D01*
X29374831Y-49621485D01*
X29003805Y-49249812D01*
X29494285Y-49250240D01*
X30003515Y-49039831D01*
X30393461Y-48650564D01*
X30604759Y-48141702D01*
X30605240Y-47590715D01*
X30394831Y-47081485D01*
X30005564Y-46691539D01*
X29496702Y-46480241D01*
X28945715Y-46479760D01*
X28436485Y-46690169D01*
X28199929Y-46926313D01*
X27965564Y-46691539D01*
X27456702Y-46480241D01*
X26905715Y-46479760D01*
X26396485Y-46690169D01*
X26159929Y-46926313D01*
X25925564Y-46691539D01*
X25416702Y-46480241D01*
X24865715Y-46479760D01*
X24356485Y-46690169D01*
X23966539Y-47079436D01*
X23755241Y-47588298D01*
X23754760Y-48139285D01*
X23912067Y-48519999D01*
X23579999Y-48519999D01*
X23289160Y-48577851D01*
X23042598Y-48742598D01*
X22457598Y-49327598D01*
X22292851Y-49574160D01*
X22234999Y-49864999D01*
X22234999Y-50543023D01*
X22164557Y-50472458D01*
X21196433Y-50070458D01*
X20148166Y-50069543D01*
X19179342Y-50469853D01*
X18437458Y-51210443D01*
X18035458Y-52178567D01*
X18034543Y-53226834D01*
X12800000Y-53226834D01*
X12800000Y-47585000D01*
X14552560Y-47585000D01*
X14552560Y-48935000D01*
X14601843Y-49182765D01*
X14742191Y-49392809D01*
X14952235Y-49533157D01*
X15200000Y-49582440D01*
X16550000Y-49582440D01*
X16797765Y-49533157D01*
X17007809Y-49392809D01*
X17148157Y-49182765D01*
X17197440Y-48935000D01*
X17197440Y-48890920D01*
X17337401Y-48797401D01*
X18097402Y-48037400D01*
X18262149Y-47790838D01*
X18320001Y-47499999D01*
X18320001Y-43119528D01*
X18770900Y-43306757D01*
X19326661Y-43307242D01*
X19840303Y-43095010D01*
X20233629Y-42702370D01*
X20319949Y-42494488D01*
X20404990Y-42700303D01*
X20797630Y-43093629D01*
X21310900Y-43306757D01*
X21866661Y-43307242D01*
X22380303Y-43095010D01*
X22773629Y-42702370D01*
X22859949Y-42494488D01*
X22944990Y-42700303D01*
X23337630Y-43093629D01*
X23850900Y-43306757D01*
X24406661Y-43307242D01*
X24920303Y-43095010D01*
X25313629Y-42702370D01*
X25399949Y-42494488D01*
X25484990Y-42700303D01*
X25877630Y-43093629D01*
X26390900Y-43306757D01*
X26946661Y-43307242D01*
X26979055Y-43293857D01*
X33252599Y-49567401D01*
X33499160Y-49732148D01*
X33790000Y-49790000D01*
X35297001Y-49790000D01*
X35587840Y-49732148D01*
X35834402Y-49567401D01*
X36237402Y-49164401D01*
X36402149Y-48917839D01*
X36460001Y-48627000D01*
X36460001Y-48379921D01*
X37859912Y-46980010D01*
X56231354Y-46980010D01*
X56522193Y-46922158D01*
X56768755Y-46757411D01*
X59187434Y-44338735D01*
X59352181Y-44092173D01*
X59410033Y-43801333D01*
X59410033Y-39085448D01*
X59410715Y-39082019D01*
X59410716Y-37095350D01*
X59410033Y-37091916D01*
X59410033Y-36471661D01*
X88137758Y-36471661D01*
X88349990Y-36985303D01*
X88742630Y-37378629D01*
X89255900Y-37591757D01*
X89811661Y-37592242D01*
X90325303Y-37380010D01*
X90718629Y-36987370D01*
X90804949Y-36779488D01*
X90889990Y-36985303D01*
X91282630Y-37378629D01*
X91795900Y-37591757D01*
X92351661Y-37592242D01*
X92865303Y-37380010D01*
X93258629Y-36987370D01*
X93344949Y-36779488D01*
X93429990Y-36985303D01*
X93822630Y-37378629D01*
X94335900Y-37591757D01*
X94891661Y-37592242D01*
X95405303Y-37380010D01*
X95798629Y-36987370D01*
X95884949Y-36779488D01*
X95969990Y-36985303D01*
X96362630Y-37378629D01*
X96875900Y-37591757D01*
X97431661Y-37592242D01*
X97945303Y-37380010D01*
X98338629Y-36987370D01*
X98424949Y-36779488D01*
X98509990Y-36985303D01*
X98902630Y-37378629D01*
X99415900Y-37591757D01*
X99971661Y-37592242D01*
X100485303Y-37380010D01*
X100878629Y-36987370D01*
X100964949Y-36779488D01*
X101049990Y-36985303D01*
X101442630Y-37378629D01*
X101955900Y-37591757D01*
X102511661Y-37592242D01*
X103025303Y-37380010D01*
X103418629Y-36987370D01*
X103504949Y-36779488D01*
X103589990Y-36985303D01*
X103982630Y-37378629D01*
X104495900Y-37591757D01*
X105051661Y-37592242D01*
X105565303Y-37380010D01*
X105958629Y-36987370D01*
X106044949Y-36779488D01*
X106129990Y-36985303D01*
X106522630Y-37378629D01*
X107035900Y-37591757D01*
X107591661Y-37592242D01*
X108105303Y-37380010D01*
X108498629Y-36987370D01*
X108711757Y-36474100D01*
X108712242Y-35918339D01*
X108500010Y-35404697D01*
X108107370Y-35011371D01*
X107594100Y-34798243D01*
X107038339Y-34797758D01*
X106524697Y-35009990D01*
X106131371Y-35402630D01*
X106045051Y-35610512D01*
X105960010Y-35404697D01*
X105567370Y-35011371D01*
X105054100Y-34798243D01*
X104498339Y-34797758D01*
X103984697Y-35009990D01*
X103591371Y-35402630D01*
X103505051Y-35610512D01*
X103420010Y-35404697D01*
X103027370Y-35011371D01*
X102514100Y-34798243D01*
X101958339Y-34797758D01*
X101444697Y-35009990D01*
X101051371Y-35402630D01*
X100965051Y-35610512D01*
X100880010Y-35404697D01*
X100487370Y-35011371D01*
X99974100Y-34798243D01*
X99418339Y-34797758D01*
X98904697Y-35009990D01*
X98511371Y-35402630D01*
X98425051Y-35610512D01*
X98340010Y-35404697D01*
X97947370Y-35011371D01*
X97434100Y-34798243D01*
X96878339Y-34797758D01*
X96364697Y-35009990D01*
X95971371Y-35402630D01*
X95885051Y-35610512D01*
X95800010Y-35404697D01*
X95407370Y-35011371D01*
X94894100Y-34798243D01*
X94338339Y-34797758D01*
X93824697Y-35009990D01*
X93431371Y-35402630D01*
X93345051Y-35610512D01*
X93260010Y-35404697D01*
X92867370Y-35011371D01*
X92354100Y-34798243D01*
X91798339Y-34797758D01*
X91284697Y-35009990D01*
X90891371Y-35402630D01*
X90805051Y-35610512D01*
X90720010Y-35404697D01*
X90327370Y-35011371D01*
X89814100Y-34798243D01*
X89258339Y-34797758D01*
X88744697Y-35009990D01*
X88351371Y-35402630D01*
X88138243Y-35915900D01*
X88137758Y-36471661D01*
X59410033Y-36471661D01*
X59410033Y-36406769D01*
X65590802Y-30226000D01*
X68059560Y-30226000D01*
X68059560Y-31750000D01*
X68108843Y-31997765D01*
X68249191Y-32207809D01*
X68459235Y-32348157D01*
X68707000Y-32397440D01*
X70231000Y-32397440D01*
X70478765Y-32348157D01*
X70688809Y-32207809D01*
X70829157Y-31997765D01*
X70835035Y-31968213D01*
X71208392Y-31968213D01*
X71277857Y-32210397D01*
X71801302Y-32397144D01*
X72356368Y-32369362D01*
X72740143Y-32210397D01*
X72809608Y-31968213D01*
X72009000Y-31167605D01*
X71208392Y-31968213D01*
X70835035Y-31968213D01*
X70878440Y-31750000D01*
X70878440Y-31745484D01*
X71028787Y-31788608D01*
X71829395Y-30988000D01*
X72188605Y-30988000D01*
X72989213Y-31788608D01*
X73231397Y-31719143D01*
X73281509Y-31578682D01*
X73363990Y-31778303D01*
X73756630Y-32171629D01*
X73789000Y-32185070D01*
X73789000Y-33920343D01*
X73629595Y-34079470D01*
X73471694Y-34459739D01*
X73471335Y-34871487D01*
X73628572Y-35252031D01*
X73919468Y-35543435D01*
X74299737Y-35701336D01*
X74711485Y-35701695D01*
X75092029Y-35544458D01*
X75383433Y-35253562D01*
X75541334Y-34873293D01*
X75541693Y-34461545D01*
X75384456Y-34081001D01*
X75309000Y-34005413D01*
X75309000Y-32185531D01*
X75339303Y-32173010D01*
X75732629Y-31780370D01*
X75818949Y-31572488D01*
X75903990Y-31778303D01*
X76296630Y-32171629D01*
X76809900Y-32384757D01*
X77365661Y-32385242D01*
X77879303Y-32173010D01*
X78272629Y-31780370D01*
X78485757Y-31267100D01*
X78486242Y-30711339D01*
X78274010Y-30197697D01*
X77881370Y-29804371D01*
X77368100Y-29591243D01*
X77020862Y-29590940D01*
X80357401Y-26254401D01*
X80522148Y-26007839D01*
X80580000Y-25717000D01*
X80580000Y-21548059D01*
X80693277Y-21472370D01*
X80822410Y-21279109D01*
X80990875Y-21501933D01*
X81410624Y-21748286D01*
X81502391Y-21763462D01*
X81693000Y-21638731D01*
X81693000Y-20447000D01*
X81673000Y-20447000D01*
X81673000Y-20193000D01*
X81693000Y-20193000D01*
X81693000Y-19001269D01*
X81947000Y-19001269D01*
X81947000Y-20193000D01*
X81967000Y-20193000D01*
X81967000Y-20447000D01*
X81947000Y-20447000D01*
X81947000Y-21638731D01*
X82137609Y-21763462D01*
X82229376Y-21748286D01*
X82649125Y-21501933D01*
X82664497Y-21481601D01*
X82762191Y-21627809D01*
X82972235Y-21768157D01*
X83220000Y-21817440D01*
X84420000Y-21817440D01*
X84667765Y-21768157D01*
X84877809Y-21627809D01*
X85018157Y-21417765D01*
X85067440Y-21170000D01*
X85067440Y-19470000D01*
X85018157Y-19222235D01*
X84877809Y-19012191D01*
X84667765Y-18871843D01*
X84420000Y-18822560D01*
X83220000Y-18822560D01*
X82972235Y-18871843D01*
X82762191Y-19012191D01*
X82664497Y-19158399D01*
X82649125Y-19138067D01*
X82229376Y-18891714D01*
X82137609Y-18876538D01*
X81947000Y-19001269D01*
X81693000Y-19001269D01*
X81502391Y-18876538D01*
X81410624Y-18891714D01*
X80990875Y-19138067D01*
X80822410Y-19360891D01*
X80693277Y-19167630D01*
X80292614Y-18899916D01*
X79820000Y-18805907D01*
X79347386Y-18899916D01*
X78946723Y-19167630D01*
X78820000Y-19357285D01*
X78693277Y-19167630D01*
X78292614Y-18899916D01*
X77820000Y-18805907D01*
X77347386Y-18899916D01*
X76946723Y-19167630D01*
X76679009Y-19568293D01*
X76585000Y-20040907D01*
X76585000Y-20599093D01*
X76679009Y-21071707D01*
X76946723Y-21472370D01*
X77347386Y-21740084D01*
X77820000Y-21834093D01*
X78292614Y-21740084D01*
X78693277Y-21472370D01*
X78820000Y-21282715D01*
X78946723Y-21472370D01*
X79060000Y-21548059D01*
X79060000Y-25402198D01*
X74858381Y-29603817D01*
X74828100Y-29591243D01*
X74272339Y-29590758D01*
X73758697Y-29802990D01*
X73365371Y-30195630D01*
X73285605Y-30387727D01*
X73231397Y-30256857D01*
X72989213Y-30187392D01*
X72188605Y-30988000D01*
X71829395Y-30988000D01*
X71028787Y-30187392D01*
X70878440Y-30230516D01*
X70878440Y-30226000D01*
X70835036Y-30007787D01*
X71208392Y-30007787D01*
X72009000Y-30808395D01*
X72809608Y-30007787D01*
X72740143Y-29765603D01*
X72216698Y-29578856D01*
X71661632Y-29606638D01*
X71277857Y-29765603D01*
X71208392Y-30007787D01*
X70835036Y-30007787D01*
X70829157Y-29978235D01*
X70688809Y-29768191D01*
X70478765Y-29627843D01*
X70231000Y-29578560D01*
X68707000Y-29578560D01*
X68459235Y-29627843D01*
X68249191Y-29768191D01*
X68108843Y-29978235D01*
X68059560Y-30226000D01*
X65590802Y-30226000D01*
X72927401Y-22889401D01*
X73092148Y-22642839D01*
X73150000Y-22352000D01*
X73150000Y-21785614D01*
X73237765Y-21768157D01*
X73447809Y-21627809D01*
X73588157Y-21417765D01*
X73637440Y-21170000D01*
X73637440Y-19470000D01*
X73588157Y-19222235D01*
X73447809Y-19012191D01*
X73237765Y-18871843D01*
X72990000Y-18822560D01*
X71790000Y-18822560D01*
X71542235Y-18871843D01*
X71332191Y-19012191D01*
X71234497Y-19158399D01*
X71219125Y-19138067D01*
X70799376Y-18891714D01*
X70707609Y-18876538D01*
X70517000Y-19001269D01*
X70517000Y-20193000D01*
X70537000Y-20193000D01*
X70537000Y-20447000D01*
X70517000Y-20447000D01*
X70517000Y-21638731D01*
X70707609Y-21763462D01*
X70799376Y-21748286D01*
X71219125Y-21501933D01*
X71234497Y-21481601D01*
X71332191Y-21627809D01*
X71542235Y-21768157D01*
X71630000Y-21785614D01*
X71630000Y-22037198D01*
X58910022Y-34757176D01*
X58910022Y-31988022D01*
X58852170Y-31697183D01*
X58687423Y-31450621D01*
X55370000Y-28133198D01*
X55370000Y-28079440D01*
X55372000Y-28079440D01*
X55619765Y-28030157D01*
X55829809Y-27889809D01*
X55970157Y-27679765D01*
X56019440Y-27432000D01*
X56019440Y-25908000D01*
X55970157Y-25660235D01*
X55829809Y-25450191D01*
X55619765Y-25309843D01*
X55372000Y-25260560D01*
X53848000Y-25260560D01*
X53600235Y-25309843D01*
X53390191Y-25450191D01*
X53249843Y-25660235D01*
X53214301Y-25838917D01*
X52862370Y-25486371D01*
X52349100Y-25273243D01*
X51793339Y-25272758D01*
X51279697Y-25484990D01*
X50886371Y-25877630D01*
X50800051Y-26085512D01*
X50715010Y-25879697D01*
X50322370Y-25486371D01*
X49809100Y-25273243D01*
X49253339Y-25272758D01*
X48739697Y-25484990D01*
X48346371Y-25877630D01*
X48260051Y-26085512D01*
X48175010Y-25879697D01*
X47782370Y-25486371D01*
X47269100Y-25273243D01*
X46713339Y-25272758D01*
X46199697Y-25484990D01*
X45806371Y-25877630D01*
X45720051Y-26085512D01*
X45635010Y-25879697D01*
X45242370Y-25486371D01*
X44729100Y-25273243D01*
X44173339Y-25272758D01*
X43659697Y-25484990D01*
X43266371Y-25877630D01*
X43180051Y-26085512D01*
X43095010Y-25879697D01*
X42702370Y-25486371D01*
X42189100Y-25273243D01*
X41633339Y-25272758D01*
X41119697Y-25484990D01*
X40726371Y-25877630D01*
X40640051Y-26085512D01*
X40555010Y-25879697D01*
X40162370Y-25486371D01*
X39649100Y-25273243D01*
X39093339Y-25272758D01*
X38579697Y-25484990D01*
X38186371Y-25877630D01*
X38100051Y-26085512D01*
X38015010Y-25879697D01*
X37622370Y-25486371D01*
X37109100Y-25273243D01*
X36553339Y-25272758D01*
X36039697Y-25484990D01*
X35646371Y-25877630D01*
X35560051Y-26085512D01*
X35475010Y-25879697D01*
X35082370Y-25486371D01*
X34569100Y-25273243D01*
X34013339Y-25272758D01*
X33499697Y-25484990D01*
X33106371Y-25877630D01*
X33020051Y-26085512D01*
X32935010Y-25879697D01*
X32542370Y-25486371D01*
X32029100Y-25273243D01*
X31473339Y-25272758D01*
X30959697Y-25484990D01*
X30566371Y-25877630D01*
X30480051Y-26085512D01*
X30395010Y-25879697D01*
X30002370Y-25486371D01*
X29489100Y-25273243D01*
X28933339Y-25272758D01*
X28419697Y-25484990D01*
X28026371Y-25877630D01*
X27940051Y-26085512D01*
X27855010Y-25879697D01*
X27462370Y-25486371D01*
X26949100Y-25273243D01*
X26393339Y-25272758D01*
X25879697Y-25484990D01*
X25486371Y-25877630D01*
X25400051Y-26085512D01*
X25315010Y-25879697D01*
X24922370Y-25486371D01*
X24409100Y-25273243D01*
X23853339Y-25272758D01*
X23339697Y-25484990D01*
X22946371Y-25877630D01*
X22860051Y-26085512D01*
X22775010Y-25879697D01*
X22382370Y-25486371D01*
X21869100Y-25273243D01*
X21313339Y-25272758D01*
X20799697Y-25484990D01*
X20406371Y-25877630D01*
X20320051Y-26085512D01*
X20235010Y-25879697D01*
X19842370Y-25486371D01*
X19329100Y-25273243D01*
X18773339Y-25272758D01*
X18259697Y-25484990D01*
X17866371Y-25877630D01*
X17653243Y-26390900D01*
X17652758Y-26946661D01*
X17864990Y-27460303D01*
X18257630Y-27853629D01*
X18770900Y-28066757D01*
X19326661Y-28067242D01*
X19840303Y-27855010D01*
X20233629Y-27462370D01*
X20319949Y-27254488D01*
X20404990Y-27460303D01*
X20797630Y-27853629D01*
X20855897Y-27877824D01*
X20887852Y-28038469D01*
X21052599Y-28285031D01*
X23149969Y-30382401D01*
X23396531Y-30547148D01*
X23687370Y-30605000D01*
X52808836Y-30605000D01*
X54840682Y-32636846D01*
X54840682Y-38460684D01*
X54888320Y-38700172D01*
X54843996Y-38806916D01*
X54843637Y-39218664D01*
X55000874Y-39599208D01*
X55291770Y-39890612D01*
X55672039Y-40048513D01*
X56083787Y-40048872D01*
X56389999Y-39922348D01*
X56389999Y-42865199D01*
X55295218Y-43959980D01*
X34778018Y-43959980D01*
X34487179Y-44017832D01*
X34240617Y-44182579D01*
X33612598Y-44810598D01*
X33447851Y-45057160D01*
X33389999Y-45347999D01*
X33389999Y-46214999D01*
X33447851Y-46505838D01*
X33612598Y-46752400D01*
X33849950Y-46989752D01*
X33849806Y-47154956D01*
X34007043Y-47535500D01*
X34093753Y-47622361D01*
X34048081Y-47667953D01*
X33890180Y-48048222D01*
X33890174Y-48055372D01*
X29141743Y-43306941D01*
X29486661Y-43307242D01*
X30000303Y-43095010D01*
X30393629Y-42702370D01*
X30479949Y-42494488D01*
X30564990Y-42700303D01*
X30957630Y-43093629D01*
X31470900Y-43306757D01*
X32026661Y-43307242D01*
X32540303Y-43095010D01*
X32933629Y-42702370D01*
X33019949Y-42494488D01*
X33104990Y-42700303D01*
X33497630Y-43093629D01*
X34010900Y-43306757D01*
X34566661Y-43307242D01*
X35080303Y-43095010D01*
X35473629Y-42702370D01*
X35559949Y-42494488D01*
X35644990Y-42700303D01*
X36037630Y-43093629D01*
X36550900Y-43306757D01*
X37106661Y-43307242D01*
X37620303Y-43095010D01*
X38013629Y-42702370D01*
X38099949Y-42494488D01*
X38184990Y-42700303D01*
X38577630Y-43093629D01*
X39090900Y-43306757D01*
X39646661Y-43307242D01*
X40160303Y-43095010D01*
X40553629Y-42702370D01*
X40639949Y-42494488D01*
X40724990Y-42700303D01*
X41117630Y-43093629D01*
X41630900Y-43306757D01*
X42186661Y-43307242D01*
X42700303Y-43095010D01*
X43093629Y-42702370D01*
X43179949Y-42494488D01*
X43264990Y-42700303D01*
X43657630Y-43093629D01*
X44170900Y-43306757D01*
X44726661Y-43307242D01*
X45240303Y-43095010D01*
X45633629Y-42702370D01*
X45719949Y-42494488D01*
X45804990Y-42700303D01*
X46197630Y-43093629D01*
X46710900Y-43306757D01*
X47266661Y-43307242D01*
X47780303Y-43095010D01*
X48173629Y-42702370D01*
X48259949Y-42494488D01*
X48344990Y-42700303D01*
X48737630Y-43093629D01*
X49250900Y-43306757D01*
X49806661Y-43307242D01*
X50320303Y-43095010D01*
X50713629Y-42702370D01*
X50799949Y-42494488D01*
X50884990Y-42700303D01*
X51277630Y-43093629D01*
X51790900Y-43306757D01*
X52346661Y-43307242D01*
X52860303Y-43095010D01*
X53253629Y-42702370D01*
X53339949Y-42494488D01*
X53424990Y-42700303D01*
X53817630Y-43093629D01*
X54330900Y-43306757D01*
X54886661Y-43307242D01*
X55400303Y-43095010D01*
X55793629Y-42702370D01*
X56006757Y-42189100D01*
X56007242Y-41633339D01*
X55795010Y-41119697D01*
X55402370Y-40726371D01*
X54889100Y-40513243D01*
X54333339Y-40512758D01*
X53819697Y-40724990D01*
X53426371Y-41117630D01*
X53340051Y-41325512D01*
X53255010Y-41119697D01*
X52862370Y-40726371D01*
X52349100Y-40513243D01*
X51793339Y-40512758D01*
X51279697Y-40724990D01*
X50886371Y-41117630D01*
X50800051Y-41325512D01*
X50715010Y-41119697D01*
X50322370Y-40726371D01*
X49809100Y-40513243D01*
X49253339Y-40512758D01*
X48739697Y-40724990D01*
X48346371Y-41117630D01*
X48260051Y-41325512D01*
X48175010Y-41119697D01*
X47782370Y-40726371D01*
X47327149Y-40537347D01*
X47025400Y-40235598D01*
X46778838Y-40070851D01*
X46487999Y-40012999D01*
X18282001Y-40012999D01*
X17991161Y-40070851D01*
X17744600Y-40235598D01*
X17022600Y-40957598D01*
X16857853Y-41204160D01*
X16800001Y-41494999D01*
X16800001Y-45366760D01*
X16664540Y-45214651D01*
X16204402Y-44992080D01*
X16002000Y-45114910D01*
X16002000Y-46133000D01*
X16022000Y-46133000D01*
X16022000Y-46387000D01*
X16002000Y-46387000D01*
X16002000Y-46407000D01*
X15748000Y-46407000D01*
X15748000Y-46387000D01*
X14730776Y-46387000D01*
X14607090Y-46589400D01*
X14745522Y-46923633D01*
X14857930Y-47049856D01*
X14742191Y-47127191D01*
X14601843Y-47337235D01*
X14552560Y-47585000D01*
X12800000Y-47585000D01*
X12800000Y-45930600D01*
X14607090Y-45930600D01*
X14730776Y-46133000D01*
X15748000Y-46133000D01*
X15748000Y-45114910D01*
X15545598Y-44992080D01*
X15085460Y-45214651D01*
X14745522Y-45596367D01*
X14607090Y-45930600D01*
X12800000Y-45930600D01*
X12800000Y-20040907D01*
X19530000Y-20040907D01*
X19530000Y-20599093D01*
X19624009Y-21071707D01*
X19891723Y-21472370D01*
X20292386Y-21740084D01*
X20765000Y-21834093D01*
X21237614Y-21740084D01*
X21638277Y-21472370D01*
X21767410Y-21279109D01*
X21935875Y-21501933D01*
X22355624Y-21748286D01*
X22447391Y-21763462D01*
X22638000Y-21638731D01*
X22638000Y-20447000D01*
X22618000Y-20447000D01*
X22618000Y-20193000D01*
X22638000Y-20193000D01*
X22638000Y-19001269D01*
X22892000Y-19001269D01*
X22892000Y-20193000D01*
X22912000Y-20193000D01*
X22912000Y-20447000D01*
X22892000Y-20447000D01*
X22892000Y-21638731D01*
X23082609Y-21763462D01*
X23174376Y-21748286D01*
X23594125Y-21501933D01*
X23609497Y-21481601D01*
X23707191Y-21627809D01*
X23917235Y-21768157D01*
X24165000Y-21817440D01*
X25365000Y-21817440D01*
X25612765Y-21768157D01*
X25822809Y-21627809D01*
X25963157Y-21417765D01*
X26012440Y-21170000D01*
X26012440Y-20040907D01*
X29055000Y-20040907D01*
X29055000Y-20599093D01*
X29149009Y-21071707D01*
X29416723Y-21472370D01*
X29817386Y-21740084D01*
X30290000Y-21834093D01*
X30762614Y-21740084D01*
X31163277Y-21472370D01*
X31292410Y-21279109D01*
X31460875Y-21501933D01*
X31880624Y-21748286D01*
X31972391Y-21763462D01*
X32163000Y-21638731D01*
X32163000Y-20447000D01*
X32143000Y-20447000D01*
X32143000Y-20193000D01*
X32163000Y-20193000D01*
X32163000Y-19001269D01*
X32417000Y-19001269D01*
X32417000Y-20193000D01*
X32437000Y-20193000D01*
X32437000Y-20447000D01*
X32417000Y-20447000D01*
X32417000Y-21638731D01*
X32607609Y-21763462D01*
X32699376Y-21748286D01*
X33119125Y-21501933D01*
X33134497Y-21481601D01*
X33232191Y-21627809D01*
X33442235Y-21768157D01*
X33690000Y-21817440D01*
X34890000Y-21817440D01*
X35137765Y-21768157D01*
X35347809Y-21627809D01*
X35488157Y-21417765D01*
X35537440Y-21170000D01*
X35537440Y-20040907D01*
X38580000Y-20040907D01*
X38580000Y-20599093D01*
X38674009Y-21071707D01*
X38941723Y-21472370D01*
X39342386Y-21740084D01*
X39815000Y-21834093D01*
X40287614Y-21740084D01*
X40688277Y-21472370D01*
X40817410Y-21279109D01*
X40985875Y-21501933D01*
X41405624Y-21748286D01*
X41497391Y-21763462D01*
X41688000Y-21638731D01*
X41688000Y-20447000D01*
X41668000Y-20447000D01*
X41668000Y-20193000D01*
X41688000Y-20193000D01*
X41688000Y-19001269D01*
X41942000Y-19001269D01*
X41942000Y-20193000D01*
X41962000Y-20193000D01*
X41962000Y-20447000D01*
X41942000Y-20447000D01*
X41942000Y-21638731D01*
X42132609Y-21763462D01*
X42224376Y-21748286D01*
X42644125Y-21501933D01*
X42659497Y-21481601D01*
X42757191Y-21627809D01*
X42967235Y-21768157D01*
X43215000Y-21817440D01*
X44415000Y-21817440D01*
X44662765Y-21768157D01*
X44872809Y-21627809D01*
X45013157Y-21417765D01*
X45062440Y-21170000D01*
X45062440Y-20040907D01*
X48105000Y-20040907D01*
X48105000Y-20599093D01*
X48199009Y-21071707D01*
X48466723Y-21472370D01*
X48867386Y-21740084D01*
X49340000Y-21834093D01*
X49812614Y-21740084D01*
X50213277Y-21472370D01*
X50342410Y-21279109D01*
X50510875Y-21501933D01*
X50930624Y-21748286D01*
X51022391Y-21763462D01*
X51213000Y-21638731D01*
X51213000Y-20447000D01*
X51193000Y-20447000D01*
X51193000Y-20193000D01*
X51213000Y-20193000D01*
X51213000Y-19001269D01*
X51467000Y-19001269D01*
X51467000Y-20193000D01*
X51487000Y-20193000D01*
X51487000Y-20447000D01*
X51467000Y-20447000D01*
X51467000Y-21638731D01*
X51657609Y-21763462D01*
X51749376Y-21748286D01*
X52169125Y-21501933D01*
X52184497Y-21481601D01*
X52282191Y-21627809D01*
X52492235Y-21768157D01*
X52740000Y-21817440D01*
X53940000Y-21817440D01*
X54187765Y-21768157D01*
X54397809Y-21627809D01*
X54538157Y-21417765D01*
X54587440Y-21170000D01*
X54587440Y-20040907D01*
X57630000Y-20040907D01*
X57630000Y-20599093D01*
X57724009Y-21071707D01*
X57991723Y-21472370D01*
X58392386Y-21740084D01*
X58865000Y-21834093D01*
X59337614Y-21740084D01*
X59738277Y-21472370D01*
X59867410Y-21279109D01*
X60035875Y-21501933D01*
X60455624Y-21748286D01*
X60547391Y-21763462D01*
X60738000Y-21638731D01*
X60738000Y-20447000D01*
X60718000Y-20447000D01*
X60718000Y-20193000D01*
X60738000Y-20193000D01*
X60738000Y-19001269D01*
X60992000Y-19001269D01*
X60992000Y-20193000D01*
X61012000Y-20193000D01*
X61012000Y-20447000D01*
X60992000Y-20447000D01*
X60992000Y-21638731D01*
X61182609Y-21763462D01*
X61274376Y-21748286D01*
X61694125Y-21501933D01*
X61709497Y-21481601D01*
X61807191Y-21627809D01*
X62017235Y-21768157D01*
X62265000Y-21817440D01*
X63465000Y-21817440D01*
X63712765Y-21768157D01*
X63922809Y-21627809D01*
X64063157Y-21417765D01*
X64112440Y-21170000D01*
X64112440Y-20040907D01*
X67155000Y-20040907D01*
X67155000Y-20599093D01*
X67249009Y-21071707D01*
X67516723Y-21472370D01*
X67917386Y-21740084D01*
X68390000Y-21834093D01*
X68862614Y-21740084D01*
X69263277Y-21472370D01*
X69392410Y-21279109D01*
X69560875Y-21501933D01*
X69980624Y-21748286D01*
X70072391Y-21763462D01*
X70263000Y-21638731D01*
X70263000Y-20447000D01*
X70243000Y-20447000D01*
X70243000Y-20193000D01*
X70263000Y-20193000D01*
X70263000Y-19001269D01*
X70072391Y-18876538D01*
X69980624Y-18891714D01*
X69560875Y-19138067D01*
X69392410Y-19360891D01*
X69263277Y-19167630D01*
X68862614Y-18899916D01*
X68390000Y-18805907D01*
X67917386Y-18899916D01*
X67516723Y-19167630D01*
X67249009Y-19568293D01*
X67155000Y-20040907D01*
X64112440Y-20040907D01*
X64112440Y-19470000D01*
X64063157Y-19222235D01*
X63922809Y-19012191D01*
X63712765Y-18871843D01*
X63465000Y-18822560D01*
X62265000Y-18822560D01*
X62017235Y-18871843D01*
X61807191Y-19012191D01*
X61709497Y-19158399D01*
X61694125Y-19138067D01*
X61274376Y-18891714D01*
X61182609Y-18876538D01*
X60992000Y-19001269D01*
X60738000Y-19001269D01*
X60547391Y-18876538D01*
X60455624Y-18891714D01*
X60035875Y-19138067D01*
X59867410Y-19360891D01*
X59738277Y-19167630D01*
X59337614Y-18899916D01*
X58865000Y-18805907D01*
X58392386Y-18899916D01*
X57991723Y-19167630D01*
X57724009Y-19568293D01*
X57630000Y-20040907D01*
X54587440Y-20040907D01*
X54587440Y-19470000D01*
X54538157Y-19222235D01*
X54397809Y-19012191D01*
X54187765Y-18871843D01*
X53940000Y-18822560D01*
X52740000Y-18822560D01*
X52492235Y-18871843D01*
X52282191Y-19012191D01*
X52184497Y-19158399D01*
X52169125Y-19138067D01*
X51749376Y-18891714D01*
X51657609Y-18876538D01*
X51467000Y-19001269D01*
X51213000Y-19001269D01*
X51022391Y-18876538D01*
X50930624Y-18891714D01*
X50510875Y-19138067D01*
X50342410Y-19360891D01*
X50213277Y-19167630D01*
X49812614Y-18899916D01*
X49340000Y-18805907D01*
X48867386Y-18899916D01*
X48466723Y-19167630D01*
X48199009Y-19568293D01*
X48105000Y-20040907D01*
X45062440Y-20040907D01*
X45062440Y-19470000D01*
X45013157Y-19222235D01*
X44872809Y-19012191D01*
X44662765Y-18871843D01*
X44415000Y-18822560D01*
X43215000Y-18822560D01*
X42967235Y-18871843D01*
X42757191Y-19012191D01*
X42659497Y-19158399D01*
X42644125Y-19138067D01*
X42224376Y-18891714D01*
X42132609Y-18876538D01*
X41942000Y-19001269D01*
X41688000Y-19001269D01*
X41497391Y-18876538D01*
X41405624Y-18891714D01*
X40985875Y-19138067D01*
X40817410Y-19360891D01*
X40688277Y-19167630D01*
X40287614Y-18899916D01*
X39815000Y-18805907D01*
X39342386Y-18899916D01*
X38941723Y-19167630D01*
X38674009Y-19568293D01*
X38580000Y-20040907D01*
X35537440Y-20040907D01*
X35537440Y-19470000D01*
X35488157Y-19222235D01*
X35347809Y-19012191D01*
X35137765Y-18871843D01*
X34890000Y-18822560D01*
X33690000Y-18822560D01*
X33442235Y-18871843D01*
X33232191Y-19012191D01*
X33134497Y-19158399D01*
X33119125Y-19138067D01*
X32699376Y-18891714D01*
X32607609Y-18876538D01*
X32417000Y-19001269D01*
X32163000Y-19001269D01*
X31972391Y-18876538D01*
X31880624Y-18891714D01*
X31460875Y-19138067D01*
X31292410Y-19360891D01*
X31163277Y-19167630D01*
X30762614Y-18899916D01*
X30290000Y-18805907D01*
X29817386Y-18899916D01*
X29416723Y-19167630D01*
X29149009Y-19568293D01*
X29055000Y-20040907D01*
X26012440Y-20040907D01*
X26012440Y-19470000D01*
X25963157Y-19222235D01*
X25822809Y-19012191D01*
X25612765Y-18871843D01*
X25365000Y-18822560D01*
X24165000Y-18822560D01*
X23917235Y-18871843D01*
X23707191Y-19012191D01*
X23609497Y-19158399D01*
X23594125Y-19138067D01*
X23174376Y-18891714D01*
X23082609Y-18876538D01*
X22892000Y-19001269D01*
X22638000Y-19001269D01*
X22447391Y-18876538D01*
X22355624Y-18891714D01*
X21935875Y-19138067D01*
X21767410Y-19360891D01*
X21638277Y-19167630D01*
X21237614Y-18899916D01*
X20765000Y-18805907D01*
X20292386Y-18899916D01*
X19891723Y-19167630D01*
X19624009Y-19568293D01*
X19530000Y-20040907D01*
X12800000Y-20040907D01*
X12800000Y-18143403D01*
X88644682Y-18143403D01*
X88923455Y-18818086D01*
X89439199Y-19334730D01*
X90113395Y-19614681D01*
X90843403Y-19615318D01*
X91518086Y-19336545D01*
X92034730Y-18820801D01*
X92132560Y-18585201D01*
X92132560Y-18980000D01*
X92181843Y-19227765D01*
X92322191Y-19437809D01*
X92532235Y-19578157D01*
X92780000Y-19627440D01*
X95180000Y-19627440D01*
X95427765Y-19578157D01*
X95637809Y-19437809D01*
X95778157Y-19227765D01*
X95827440Y-18980000D01*
X95827440Y-18143403D01*
X98169682Y-18143403D01*
X98448455Y-18818086D01*
X98964199Y-19334730D01*
X99638395Y-19614681D01*
X100368403Y-19615318D01*
X101043086Y-19336545D01*
X101559730Y-18820801D01*
X101657560Y-18585201D01*
X101657560Y-18980000D01*
X101706843Y-19227765D01*
X101847191Y-19437809D01*
X102057235Y-19578157D01*
X102305000Y-19627440D01*
X104705000Y-19627440D01*
X104952765Y-19578157D01*
X105162809Y-19437809D01*
X105303157Y-19227765D01*
X105352440Y-18980000D01*
X105352440Y-16580000D01*
X105303157Y-16332235D01*
X105162809Y-16122191D01*
X104952765Y-15981843D01*
X104705000Y-15932560D01*
X102305000Y-15932560D01*
X102057235Y-15981843D01*
X101847191Y-16122191D01*
X101706843Y-16332235D01*
X101657560Y-16580000D01*
X101657560Y-16974288D01*
X101561545Y-16741914D01*
X101045801Y-16225270D01*
X100371605Y-15945319D01*
X99641597Y-15944682D01*
X98966914Y-16223455D01*
X98450270Y-16739199D01*
X98170319Y-17413395D01*
X98169682Y-18143403D01*
X95827440Y-18143403D01*
X95827440Y-16580000D01*
X95778157Y-16332235D01*
X95637809Y-16122191D01*
X95427765Y-15981843D01*
X95180000Y-15932560D01*
X92780000Y-15932560D01*
X92532235Y-15981843D01*
X92322191Y-16122191D01*
X92181843Y-16332235D01*
X92132560Y-16580000D01*
X92132560Y-16974288D01*
X92036545Y-16741914D01*
X91520801Y-16225270D01*
X90846605Y-15945319D01*
X90116597Y-15944682D01*
X89441914Y-16223455D01*
X88925270Y-16739199D01*
X88645319Y-17413395D01*
X88644682Y-18143403D01*
X12800000Y-18143403D01*
X12800000Y-15240000D01*
X13110097Y-15240000D01*
X13272226Y-16055079D01*
X13733931Y-16746069D01*
X14424921Y-17207774D01*
X15240000Y-17369903D01*
X16055079Y-17207774D01*
X16746069Y-16746069D01*
X17207774Y-16055079D01*
X17369903Y-15240000D01*
X106430097Y-15240000D01*
X106594129Y-16064646D01*
X107061253Y-16763747D01*
X107760354Y-17230871D01*
X108585000Y-17394903D01*
X109409646Y-17230871D01*
X110108747Y-16763747D01*
X110575871Y-16064646D01*
X110739903Y-15240000D01*
X110575871Y-14415354D01*
X110108747Y-13716253D01*
X109409646Y-13249129D01*
X108585000Y-13085097D01*
X107760354Y-13249129D01*
X107061253Y-13716253D01*
X106594129Y-14415354D01*
X106430097Y-15240000D01*
X17369903Y-15240000D01*
X17207774Y-14424921D01*
X16746069Y-13733931D01*
X16055079Y-13272226D01*
X15240000Y-13110097D01*
X14424921Y-13272226D01*
X13733931Y-13733931D01*
X13272226Y-14424921D01*
X13110097Y-15240000D01*
X12800000Y-15240000D01*
X12800000Y-13407390D01*
X12854028Y-13135775D01*
X12966879Y-12966880D01*
X13135775Y-12854028D01*
X13407390Y-12800000D01*
X110417610Y-12800000D01*
X110689225Y-12854028D01*
X110689225Y-12854028D01*
G37*
X110689225Y-12854028D02*
X110858120Y-12966879D01*
X110970972Y-13135775D01*
X111025000Y-13407390D01*
X111025000Y-60887610D01*
X110970972Y-61159225D01*
X110858120Y-61328121D01*
X110689225Y-61440972D01*
X110417610Y-61495000D01*
X13407390Y-61495000D01*
X13135775Y-61440972D01*
X12966879Y-61328120D01*
X12854028Y-61159225D01*
X12800000Y-60887610D01*
X12800000Y-59055000D01*
X13110097Y-59055000D01*
X13272226Y-59870079D01*
X13733931Y-60561069D01*
X14424921Y-61022774D01*
X15240000Y-61184903D01*
X16055079Y-61022774D01*
X16746069Y-60561069D01*
X17207774Y-59870079D01*
X17369903Y-59055000D01*
X17207774Y-58239921D01*
X16746069Y-57548931D01*
X16055079Y-57087226D01*
X15240000Y-56925097D01*
X14424921Y-57087226D01*
X13733931Y-57548931D01*
X13272226Y-58239921D01*
X13110097Y-59055000D01*
X12800000Y-59055000D01*
X12800000Y-53226834D01*
X18034543Y-53226834D01*
X18434853Y-54195658D01*
X19175443Y-54937542D01*
X20143567Y-55339542D01*
X21191834Y-55340457D01*
X22160658Y-54940147D01*
X22867990Y-54234049D01*
X22867990Y-55377990D01*
X22925842Y-55668829D01*
X23090589Y-55915391D01*
X23355560Y-56180362D01*
X23355560Y-56896000D01*
X23433845Y-57289567D01*
X23552736Y-57467500D01*
X23433845Y-57645433D01*
X23355560Y-58039000D01*
X23355560Y-58801000D01*
X23433845Y-59194567D01*
X23656783Y-59528217D01*
X23990433Y-59751155D01*
X24384000Y-59829440D01*
X25146000Y-59829440D01*
X25539567Y-59751155D01*
X25873217Y-59528217D01*
X26096155Y-59194567D01*
X26099053Y-59180000D01*
X27240947Y-59180000D01*
X27243845Y-59194567D01*
X27466783Y-59528217D01*
X27800433Y-59751155D01*
X28194000Y-59829440D01*
X28956000Y-59829440D01*
X29349567Y-59751155D01*
X29683217Y-59528217D01*
X29859894Y-59263801D01*
X29892954Y-59296919D01*
X30273223Y-59454820D01*
X30684971Y-59455179D01*
X31065515Y-59297942D01*
X31308881Y-59055000D01*
X106455097Y-59055000D01*
X106617226Y-59870079D01*
X107078931Y-60561069D01*
X107769921Y-61022774D01*
X108585000Y-61184903D01*
X109400079Y-61022774D01*
X110091069Y-60561069D01*
X110552774Y-59870079D01*
X110714903Y-59055000D01*
X110552774Y-58239921D01*
X110091069Y-57548931D01*
X109400079Y-57087226D01*
X108585000Y-56925097D01*
X107769921Y-57087226D01*
X107078931Y-57548931D01*
X106617226Y-58239921D01*
X106455097Y-59055000D01*
X31308881Y-59055000D01*
X31356919Y-59007046D01*
X31514820Y-58626777D01*
X31515179Y-58215029D01*
X31357942Y-57834485D01*
X31067046Y-57543081D01*
X30686777Y-57385180D01*
X30275029Y-57384821D01*
X29894485Y-57542058D01*
X29860050Y-57576433D01*
X29787264Y-57467500D01*
X29906155Y-57289567D01*
X29984440Y-56896000D01*
X29984440Y-56180362D01*
X30249411Y-55915391D01*
X30414158Y-55668829D01*
X30472010Y-55377990D01*
X30472010Y-54232880D01*
X31175443Y-54937542D01*
X32143567Y-55339542D01*
X33191834Y-55340457D01*
X34160658Y-54940147D01*
X34841242Y-54260750D01*
X88138000Y-54260750D01*
X88138000Y-54863309D01*
X88234673Y-55096698D01*
X88413301Y-55275327D01*
X88646690Y-55372000D01*
X89249250Y-55372000D01*
X89408000Y-55213250D01*
X89408000Y-54102000D01*
X88296750Y-54102000D01*
X88138000Y-54260750D01*
X34841242Y-54260750D01*
X34902542Y-54199557D01*
X35304542Y-53231433D01*
X35304668Y-53086691D01*
X88138000Y-53086691D01*
X88138000Y-53689250D01*
X88296750Y-53848000D01*
X89408000Y-53848000D01*
X89408000Y-52736750D01*
X89662000Y-52736750D01*
X89662000Y-53848000D01*
X89682000Y-53848000D01*
X89682000Y-54102000D01*
X89662000Y-54102000D01*
X89662000Y-55213250D01*
X89820750Y-55372000D01*
X90423310Y-55372000D01*
X90656699Y-55275327D01*
X90835327Y-55096698D01*
X90932000Y-54863309D01*
X90932000Y-54807386D01*
X91282630Y-55158629D01*
X91795900Y-55371757D01*
X92351661Y-55372242D01*
X92865303Y-55160010D01*
X93258629Y-54767370D01*
X93344949Y-54559488D01*
X93429990Y-54765303D01*
X93822630Y-55158629D01*
X94335900Y-55371757D01*
X94891661Y-55372242D01*
X95405303Y-55160010D01*
X95798629Y-54767370D01*
X95884949Y-54559488D01*
X95969990Y-54765303D01*
X96362630Y-55158629D01*
X96875900Y-55371757D01*
X97431661Y-55372242D01*
X97945303Y-55160010D01*
X98338629Y-54767370D01*
X98424949Y-54559488D01*
X98509990Y-54765303D01*
X98902630Y-55158629D01*
X99415900Y-55371757D01*
X99971661Y-55372242D01*
X100485303Y-55160010D01*
X100878629Y-54767370D01*
X100964949Y-54559488D01*
X101049990Y-54765303D01*
X101442630Y-55158629D01*
X101955900Y-55371757D01*
X102511661Y-55372242D01*
X103025303Y-55160010D01*
X103418629Y-54767370D01*
X103504949Y-54559488D01*
X103589990Y-54765303D01*
X103982630Y-55158629D01*
X104495900Y-55371757D01*
X105051661Y-55372242D01*
X105565303Y-55160010D01*
X105958629Y-54767370D01*
X106044949Y-54559488D01*
X106129990Y-54765303D01*
X106522630Y-55158629D01*
X107035900Y-55371757D01*
X107591661Y-55372242D01*
X108105303Y-55160010D01*
X108498629Y-54767370D01*
X108711757Y-54254100D01*
X108712242Y-53698339D01*
X108500010Y-53184697D01*
X108107370Y-52791371D01*
X107594100Y-52578243D01*
X107038339Y-52577758D01*
X106524697Y-52789990D01*
X106131371Y-53182630D01*
X106045051Y-53390512D01*
X105960010Y-53184697D01*
X105567370Y-52791371D01*
X105054100Y-52578243D01*
X104498339Y-52577758D01*
X103984697Y-52789990D01*
X103591371Y-53182630D01*
X103505051Y-53390512D01*
X103420010Y-53184697D01*
X103027370Y-52791371D01*
X102514100Y-52578243D01*
X101958339Y-52577758D01*
X101444697Y-52789990D01*
X101051371Y-53182630D01*
X100965051Y-53390512D01*
X100880010Y-53184697D01*
X100487370Y-52791371D01*
X99974100Y-52578243D01*
X99418339Y-52577758D01*
X98904697Y-52789990D01*
X98511371Y-53182630D01*
X98425051Y-53390512D01*
X98340010Y-53184697D01*
X97947370Y-52791371D01*
X97434100Y-52578243D01*
X96878339Y-52577758D01*
X96364697Y-52789990D01*
X95971371Y-53182630D01*
X95885051Y-53390512D01*
X95800010Y-53184697D01*
X95407370Y-52791371D01*
X94894100Y-52578243D01*
X94338339Y-52577758D01*
X93824697Y-52789990D01*
X93431371Y-53182630D01*
X93345051Y-53390512D01*
X93260010Y-53184697D01*
X92867370Y-52791371D01*
X92354100Y-52578243D01*
X91798339Y-52577758D01*
X91284697Y-52789990D01*
X90932000Y-53142072D01*
X90932000Y-53086691D01*
X90835327Y-52853302D01*
X90656699Y-52674673D01*
X90423310Y-52578000D01*
X89820750Y-52578000D01*
X89662000Y-52736750D01*
X89408000Y-52736750D01*
X89249250Y-52578000D01*
X88646690Y-52578000D01*
X88413301Y-52674673D01*
X88234673Y-52853302D01*
X88138000Y-53086691D01*
X35304668Y-53086691D01*
X35305457Y-52183166D01*
X34905147Y-51214342D01*
X34164557Y-50472458D01*
X33196433Y-50070458D01*
X32148166Y-50069543D01*
X31179342Y-50469853D01*
X30437458Y-51210443D01*
X30104382Y-52012578D01*
X29484402Y-51392598D01*
X29296707Y-51267184D01*
X29373461Y-51190564D01*
X29584759Y-50681702D01*
X29585240Y-50130715D01*
X29374831Y-49621485D01*
X29003805Y-49249812D01*
X29494285Y-49250240D01*
X30003515Y-49039831D01*
X30393461Y-48650564D01*
X30604759Y-48141702D01*
X30605240Y-47590715D01*
X30394831Y-47081485D01*
X30005564Y-46691539D01*
X29496702Y-46480241D01*
X28945715Y-46479760D01*
X28436485Y-46690169D01*
X28199929Y-46926313D01*
X27965564Y-46691539D01*
X27456702Y-46480241D01*
X26905715Y-46479760D01*
X26396485Y-46690169D01*
X26159929Y-46926313D01*
X25925564Y-46691539D01*
X25416702Y-46480241D01*
X24865715Y-46479760D01*
X24356485Y-46690169D01*
X23966539Y-47079436D01*
X23755241Y-47588298D01*
X23754760Y-48139285D01*
X23912067Y-48519999D01*
X23579999Y-48519999D01*
X23289160Y-48577851D01*
X23042598Y-48742598D01*
X22457598Y-49327598D01*
X22292851Y-49574160D01*
X22234999Y-49864999D01*
X22234999Y-50543023D01*
X22164557Y-50472458D01*
X21196433Y-50070458D01*
X20148166Y-50069543D01*
X19179342Y-50469853D01*
X18437458Y-51210443D01*
X18035458Y-52178567D01*
X18034543Y-53226834D01*
X12800000Y-53226834D01*
X12800000Y-47585000D01*
X14552560Y-47585000D01*
X14552560Y-48935000D01*
X14601843Y-49182765D01*
X14742191Y-49392809D01*
X14952235Y-49533157D01*
X15200000Y-49582440D01*
X16550000Y-49582440D01*
X16797765Y-49533157D01*
X17007809Y-49392809D01*
X17148157Y-49182765D01*
X17197440Y-48935000D01*
X17197440Y-48890920D01*
X17337401Y-48797401D01*
X18097402Y-48037400D01*
X18262149Y-47790838D01*
X18320001Y-47499999D01*
X18320001Y-43119528D01*
X18770900Y-43306757D01*
X19326661Y-43307242D01*
X19840303Y-43095010D01*
X20233629Y-42702370D01*
X20319949Y-42494488D01*
X20404990Y-42700303D01*
X20797630Y-43093629D01*
X21310900Y-43306757D01*
X21866661Y-43307242D01*
X22380303Y-43095010D01*
X22773629Y-42702370D01*
X22859949Y-42494488D01*
X22944990Y-42700303D01*
X23337630Y-43093629D01*
X23850900Y-43306757D01*
X24406661Y-43307242D01*
X24920303Y-43095010D01*
X25313629Y-42702370D01*
X25399949Y-42494488D01*
X25484990Y-42700303D01*
X25877630Y-43093629D01*
X26390900Y-43306757D01*
X26946661Y-43307242D01*
X26979055Y-43293857D01*
X33252599Y-49567401D01*
X33499160Y-49732148D01*
X33790000Y-49790000D01*
X35297001Y-49790000D01*
X35587840Y-49732148D01*
X35834402Y-49567401D01*
X36237402Y-49164401D01*
X36402149Y-48917839D01*
X36460001Y-48627000D01*
X36460001Y-48379921D01*
X37859912Y-46980010D01*
X56231354Y-46980010D01*
X56522193Y-46922158D01*
X56768755Y-46757411D01*
X59187434Y-44338735D01*
X59352181Y-44092173D01*
X59410033Y-43801333D01*
X59410033Y-39085448D01*
X59410715Y-39082019D01*
X59410716Y-37095350D01*
X59410033Y-37091916D01*
X59410033Y-36471661D01*
X88137758Y-36471661D01*
X88349990Y-36985303D01*
X88742630Y-37378629D01*
X89255900Y-37591757D01*
X89811661Y-37592242D01*
X90325303Y-37380010D01*
X90718629Y-36987370D01*
X90804949Y-36779488D01*
X90889990Y-36985303D01*
X91282630Y-37378629D01*
X91795900Y-37591757D01*
X92351661Y-37592242D01*
X92865303Y-37380010D01*
X93258629Y-36987370D01*
X93344949Y-36779488D01*
X93429990Y-36985303D01*
X93822630Y-37378629D01*
X94335900Y-37591757D01*
X94891661Y-37592242D01*
X95405303Y-37380010D01*
X95798629Y-36987370D01*
X95884949Y-36779488D01*
X95969990Y-36985303D01*
X96362630Y-37378629D01*
X96875900Y-37591757D01*
X97431661Y-37592242D01*
X97945303Y-37380010D01*
X98338629Y-36987370D01*
X98424949Y-36779488D01*
X98509990Y-36985303D01*
X98902630Y-37378629D01*
X99415900Y-37591757D01*
X99971661Y-37592242D01*
X100485303Y-37380010D01*
X100878629Y-36987370D01*
X100964949Y-36779488D01*
X101049990Y-36985303D01*
X101442630Y-37378629D01*
X101955900Y-37591757D01*
X102511661Y-37592242D01*
X103025303Y-37380010D01*
X103418629Y-36987370D01*
X103504949Y-36779488D01*
X103589990Y-36985303D01*
X103982630Y-37378629D01*
X104495900Y-37591757D01*
X105051661Y-37592242D01*
X105565303Y-37380010D01*
X105958629Y-36987370D01*
X106044949Y-36779488D01*
X106129990Y-36985303D01*
X106522630Y-37378629D01*
X107035900Y-37591757D01*
X107591661Y-37592242D01*
X108105303Y-37380010D01*
X108498629Y-36987370D01*
X108711757Y-36474100D01*
X108712242Y-35918339D01*
X108500010Y-35404697D01*
X108107370Y-35011371D01*
X107594100Y-34798243D01*
X107038339Y-34797758D01*
X106524697Y-35009990D01*
X106131371Y-35402630D01*
X106045051Y-35610512D01*
X105960010Y-35404697D01*
X105567370Y-35011371D01*
X105054100Y-34798243D01*
X104498339Y-34797758D01*
X103984697Y-35009990D01*
X103591371Y-35402630D01*
X103505051Y-35610512D01*
X103420010Y-35404697D01*
X103027370Y-35011371D01*
X102514100Y-34798243D01*
X101958339Y-34797758D01*
X101444697Y-35009990D01*
X101051371Y-35402630D01*
X100965051Y-35610512D01*
X100880010Y-35404697D01*
X100487370Y-35011371D01*
X99974100Y-34798243D01*
X99418339Y-34797758D01*
X98904697Y-35009990D01*
X98511371Y-35402630D01*
X98425051Y-35610512D01*
X98340010Y-35404697D01*
X97947370Y-35011371D01*
X97434100Y-34798243D01*
X96878339Y-34797758D01*
X96364697Y-35009990D01*
X95971371Y-35402630D01*
X95885051Y-35610512D01*
X95800010Y-35404697D01*
X95407370Y-35011371D01*
X94894100Y-34798243D01*
X94338339Y-34797758D01*
X93824697Y-35009990D01*
X93431371Y-35402630D01*
X93345051Y-35610512D01*
X93260010Y-35404697D01*
X92867370Y-35011371D01*
X92354100Y-34798243D01*
X91798339Y-34797758D01*
X91284697Y-35009990D01*
X90891371Y-35402630D01*
X90805051Y-35610512D01*
X90720010Y-35404697D01*
X90327370Y-35011371D01*
X89814100Y-34798243D01*
X89258339Y-34797758D01*
X88744697Y-35009990D01*
X88351371Y-35402630D01*
X88138243Y-35915900D01*
X88137758Y-36471661D01*
X59410033Y-36471661D01*
X59410033Y-36406769D01*
X65590802Y-30226000D01*
X68059560Y-30226000D01*
X68059560Y-31750000D01*
X68108843Y-31997765D01*
X68249191Y-32207809D01*
X68459235Y-32348157D01*
X68707000Y-32397440D01*
X70231000Y-32397440D01*
X70478765Y-32348157D01*
X70688809Y-32207809D01*
X70829157Y-31997765D01*
X70835035Y-31968213D01*
X71208392Y-31968213D01*
X71277857Y-32210397D01*
X71801302Y-32397144D01*
X72356368Y-32369362D01*
X72740143Y-32210397D01*
X72809608Y-31968213D01*
X72009000Y-31167605D01*
X71208392Y-31968213D01*
X70835035Y-31968213D01*
X70878440Y-31750000D01*
X70878440Y-31745484D01*
X71028787Y-31788608D01*
X71829395Y-30988000D01*
X72188605Y-30988000D01*
X72989213Y-31788608D01*
X73231397Y-31719143D01*
X73281509Y-31578682D01*
X73363990Y-31778303D01*
X73756630Y-32171629D01*
X73789000Y-32185070D01*
X73789000Y-33920343D01*
X73629595Y-34079470D01*
X73471694Y-34459739D01*
X73471335Y-34871487D01*
X73628572Y-35252031D01*
X73919468Y-35543435D01*
X74299737Y-35701336D01*
X74711485Y-35701695D01*
X75092029Y-35544458D01*
X75383433Y-35253562D01*
X75541334Y-34873293D01*
X75541693Y-34461545D01*
X75384456Y-34081001D01*
X75309000Y-34005413D01*
X75309000Y-32185531D01*
X75339303Y-32173010D01*
X75732629Y-31780370D01*
X75818949Y-31572488D01*
X75903990Y-31778303D01*
X76296630Y-32171629D01*
X76809900Y-32384757D01*
X77365661Y-32385242D01*
X77879303Y-32173010D01*
X78272629Y-31780370D01*
X78485757Y-31267100D01*
X78486242Y-30711339D01*
X78274010Y-30197697D01*
X77881370Y-29804371D01*
X77368100Y-29591243D01*
X77020862Y-29590940D01*
X80357401Y-26254401D01*
X80522148Y-26007839D01*
X80580000Y-25717000D01*
X80580000Y-21548059D01*
X80693277Y-21472370D01*
X80822410Y-21279109D01*
X80990875Y-21501933D01*
X81410624Y-21748286D01*
X81502391Y-21763462D01*
X81693000Y-21638731D01*
X81693000Y-20447000D01*
X81673000Y-20447000D01*
X81673000Y-20193000D01*
X81693000Y-20193000D01*
X81693000Y-19001269D01*
X81947000Y-19001269D01*
X81947000Y-20193000D01*
X81967000Y-20193000D01*
X81967000Y-20447000D01*
X81947000Y-20447000D01*
X81947000Y-21638731D01*
X82137609Y-21763462D01*
X82229376Y-21748286D01*
X82649125Y-21501933D01*
X82664497Y-21481601D01*
X82762191Y-21627809D01*
X82972235Y-21768157D01*
X83220000Y-21817440D01*
X84420000Y-21817440D01*
X84667765Y-21768157D01*
X84877809Y-21627809D01*
X85018157Y-21417765D01*
X85067440Y-21170000D01*
X85067440Y-19470000D01*
X85018157Y-19222235D01*
X84877809Y-19012191D01*
X84667765Y-18871843D01*
X84420000Y-18822560D01*
X83220000Y-18822560D01*
X82972235Y-18871843D01*
X82762191Y-19012191D01*
X82664497Y-19158399D01*
X82649125Y-19138067D01*
X82229376Y-18891714D01*
X82137609Y-18876538D01*
X81947000Y-19001269D01*
X81693000Y-19001269D01*
X81502391Y-18876538D01*
X81410624Y-18891714D01*
X80990875Y-19138067D01*
X80822410Y-19360891D01*
X80693277Y-19167630D01*
X80292614Y-18899916D01*
X79820000Y-18805907D01*
X79347386Y-18899916D01*
X78946723Y-19167630D01*
X78820000Y-19357285D01*
X78693277Y-19167630D01*
X78292614Y-18899916D01*
X77820000Y-18805907D01*
X77347386Y-18899916D01*
X76946723Y-19167630D01*
X76679009Y-19568293D01*
X76585000Y-20040907D01*
X76585000Y-20599093D01*
X76679009Y-21071707D01*
X76946723Y-21472370D01*
X77347386Y-21740084D01*
X77820000Y-21834093D01*
X78292614Y-21740084D01*
X78693277Y-21472370D01*
X78820000Y-21282715D01*
X78946723Y-21472370D01*
X79060000Y-21548059D01*
X79060000Y-25402198D01*
X74858381Y-29603817D01*
X74828100Y-29591243D01*
X74272339Y-29590758D01*
X73758697Y-29802990D01*
X73365371Y-30195630D01*
X73285605Y-30387727D01*
X73231397Y-30256857D01*
X72989213Y-30187392D01*
X72188605Y-30988000D01*
X71829395Y-30988000D01*
X71028787Y-30187392D01*
X70878440Y-30230516D01*
X70878440Y-30226000D01*
X70835036Y-30007787D01*
X71208392Y-30007787D01*
X72009000Y-30808395D01*
X72809608Y-30007787D01*
X72740143Y-29765603D01*
X72216698Y-29578856D01*
X71661632Y-29606638D01*
X71277857Y-29765603D01*
X71208392Y-30007787D01*
X70835036Y-30007787D01*
X70829157Y-29978235D01*
X70688809Y-29768191D01*
X70478765Y-29627843D01*
X70231000Y-29578560D01*
X68707000Y-29578560D01*
X68459235Y-29627843D01*
X68249191Y-29768191D01*
X68108843Y-29978235D01*
X68059560Y-30226000D01*
X65590802Y-30226000D01*
X72927401Y-22889401D01*
X73092148Y-22642839D01*
X73150000Y-22352000D01*
X73150000Y-21785614D01*
X73237765Y-21768157D01*
X73447809Y-21627809D01*
X73588157Y-21417765D01*
X73637440Y-21170000D01*
X73637440Y-19470000D01*
X73588157Y-19222235D01*
X73447809Y-19012191D01*
X73237765Y-18871843D01*
X72990000Y-18822560D01*
X71790000Y-18822560D01*
X71542235Y-18871843D01*
X71332191Y-19012191D01*
X71234497Y-19158399D01*
X71219125Y-19138067D01*
X70799376Y-18891714D01*
X70707609Y-18876538D01*
X70517000Y-19001269D01*
X70517000Y-20193000D01*
X70537000Y-20193000D01*
X70537000Y-20447000D01*
X70517000Y-20447000D01*
X70517000Y-21638731D01*
X70707609Y-21763462D01*
X70799376Y-21748286D01*
X71219125Y-21501933D01*
X71234497Y-21481601D01*
X71332191Y-21627809D01*
X71542235Y-21768157D01*
X71630000Y-21785614D01*
X71630000Y-22037198D01*
X58910022Y-34757176D01*
X58910022Y-31988022D01*
X58852170Y-31697183D01*
X58687423Y-31450621D01*
X55370000Y-28133198D01*
X55370000Y-28079440D01*
X55372000Y-28079440D01*
X55619765Y-28030157D01*
X55829809Y-27889809D01*
X55970157Y-27679765D01*
X56019440Y-27432000D01*
X56019440Y-25908000D01*
X55970157Y-25660235D01*
X55829809Y-25450191D01*
X55619765Y-25309843D01*
X55372000Y-25260560D01*
X53848000Y-25260560D01*
X53600235Y-25309843D01*
X53390191Y-25450191D01*
X53249843Y-25660235D01*
X53214301Y-25838917D01*
X52862370Y-25486371D01*
X52349100Y-25273243D01*
X51793339Y-25272758D01*
X51279697Y-25484990D01*
X50886371Y-25877630D01*
X50800051Y-26085512D01*
X50715010Y-25879697D01*
X50322370Y-25486371D01*
X49809100Y-25273243D01*
X49253339Y-25272758D01*
X48739697Y-25484990D01*
X48346371Y-25877630D01*
X48260051Y-26085512D01*
X48175010Y-25879697D01*
X47782370Y-25486371D01*
X47269100Y-25273243D01*
X46713339Y-25272758D01*
X46199697Y-25484990D01*
X45806371Y-25877630D01*
X45720051Y-26085512D01*
X45635010Y-25879697D01*
X45242370Y-25486371D01*
X44729100Y-25273243D01*
X44173339Y-25272758D01*
X43659697Y-25484990D01*
X43266371Y-25877630D01*
X43180051Y-26085512D01*
X43095010Y-25879697D01*
X42702370Y-25486371D01*
X42189100Y-25273243D01*
X41633339Y-25272758D01*
X41119697Y-25484990D01*
X40726371Y-25877630D01*
X40640051Y-26085512D01*
X40555010Y-25879697D01*
X40162370Y-25486371D01*
X39649100Y-25273243D01*
X39093339Y-25272758D01*
X38579697Y-25484990D01*
X38186371Y-25877630D01*
X38100051Y-26085512D01*
X38015010Y-25879697D01*
X37622370Y-25486371D01*
X37109100Y-25273243D01*
X36553339Y-25272758D01*
X36039697Y-25484990D01*
X35646371Y-25877630D01*
X35560051Y-26085512D01*
X35475010Y-25879697D01*
X35082370Y-25486371D01*
X34569100Y-25273243D01*
X34013339Y-25272758D01*
X33499697Y-25484990D01*
X33106371Y-25877630D01*
X33020051Y-26085512D01*
X32935010Y-25879697D01*
X32542370Y-25486371D01*
X32029100Y-25273243D01*
X31473339Y-25272758D01*
X30959697Y-25484990D01*
X30566371Y-25877630D01*
X30480051Y-26085512D01*
X30395010Y-25879697D01*
X30002370Y-25486371D01*
X29489100Y-25273243D01*
X28933339Y-25272758D01*
X28419697Y-25484990D01*
X28026371Y-25877630D01*
X27940051Y-26085512D01*
X27855010Y-25879697D01*
X27462370Y-25486371D01*
X26949100Y-25273243D01*
X26393339Y-25272758D01*
X25879697Y-25484990D01*
X25486371Y-25877630D01*
X25400051Y-26085512D01*
X25315010Y-25879697D01*
X24922370Y-25486371D01*
X24409100Y-25273243D01*
X23853339Y-25272758D01*
X23339697Y-25484990D01*
X22946371Y-25877630D01*
X22860051Y-26085512D01*
X22775010Y-25879697D01*
X22382370Y-25486371D01*
X21869100Y-25273243D01*
X21313339Y-25272758D01*
X20799697Y-25484990D01*
X20406371Y-25877630D01*
X20320051Y-26085512D01*
X20235010Y-25879697D01*
X19842370Y-25486371D01*
X19329100Y-25273243D01*
X18773339Y-25272758D01*
X18259697Y-25484990D01*
X17866371Y-25877630D01*
X17653243Y-26390900D01*
X17652758Y-26946661D01*
X17864990Y-27460303D01*
X18257630Y-27853629D01*
X18770900Y-28066757D01*
X19326661Y-28067242D01*
X19840303Y-27855010D01*
X20233629Y-27462370D01*
X20319949Y-27254488D01*
X20404990Y-27460303D01*
X20797630Y-27853629D01*
X20855897Y-27877824D01*
X20887852Y-28038469D01*
X21052599Y-28285031D01*
X23149969Y-30382401D01*
X23396531Y-30547148D01*
X23687370Y-30605000D01*
X52808836Y-30605000D01*
X54840682Y-32636846D01*
X54840682Y-38460684D01*
X54888320Y-38700172D01*
X54843996Y-38806916D01*
X54843637Y-39218664D01*
X55000874Y-39599208D01*
X55291770Y-39890612D01*
X55672039Y-40048513D01*
X56083787Y-40048872D01*
X56389999Y-39922348D01*
X56389999Y-42865199D01*
X55295218Y-43959980D01*
X34778018Y-43959980D01*
X34487179Y-44017832D01*
X34240617Y-44182579D01*
X33612598Y-44810598D01*
X33447851Y-45057160D01*
X33389999Y-45347999D01*
X33389999Y-46214999D01*
X33447851Y-46505838D01*
X33612598Y-46752400D01*
X33849950Y-46989752D01*
X33849806Y-47154956D01*
X34007043Y-47535500D01*
X34093753Y-47622361D01*
X34048081Y-47667953D01*
X33890180Y-48048222D01*
X33890174Y-48055372D01*
X29141743Y-43306941D01*
X29486661Y-43307242D01*
X30000303Y-43095010D01*
X30393629Y-42702370D01*
X30479949Y-42494488D01*
X30564990Y-42700303D01*
X30957630Y-43093629D01*
X31470900Y-43306757D01*
X32026661Y-43307242D01*
X32540303Y-43095010D01*
X32933629Y-42702370D01*
X33019949Y-42494488D01*
X33104990Y-42700303D01*
X33497630Y-43093629D01*
X34010900Y-43306757D01*
X34566661Y-43307242D01*
X35080303Y-43095010D01*
X35473629Y-42702370D01*
X35559949Y-42494488D01*
X35644990Y-42700303D01*
X36037630Y-43093629D01*
X36550900Y-43306757D01*
X37106661Y-43307242D01*
X37620303Y-43095010D01*
X38013629Y-42702370D01*
X38099949Y-42494488D01*
X38184990Y-42700303D01*
X38577630Y-43093629D01*
X39090900Y-43306757D01*
X39646661Y-43307242D01*
X40160303Y-43095010D01*
X40553629Y-42702370D01*
X40639949Y-42494488D01*
X40724990Y-42700303D01*
X41117630Y-43093629D01*
X41630900Y-43306757D01*
X42186661Y-43307242D01*
X42700303Y-43095010D01*
X43093629Y-42702370D01*
X43179949Y-42494488D01*
X43264990Y-42700303D01*
X43657630Y-43093629D01*
X44170900Y-43306757D01*
X44726661Y-43307242D01*
X45240303Y-43095010D01*
X45633629Y-42702370D01*
X45719949Y-42494488D01*
X45804990Y-42700303D01*
X46197630Y-43093629D01*
X46710900Y-43306757D01*
X47266661Y-43307242D01*
X47780303Y-43095010D01*
X48173629Y-42702370D01*
X48259949Y-42494488D01*
X48344990Y-42700303D01*
X48737630Y-43093629D01*
X49250900Y-43306757D01*
X49806661Y-43307242D01*
X50320303Y-43095010D01*
X50713629Y-42702370D01*
X50799949Y-42494488D01*
X50884990Y-42700303D01*
X51277630Y-43093629D01*
X51790900Y-43306757D01*
X52346661Y-43307242D01*
X52860303Y-43095010D01*
X53253629Y-42702370D01*
X53339949Y-42494488D01*
X53424990Y-42700303D01*
X53817630Y-43093629D01*
X54330900Y-43306757D01*
X54886661Y-43307242D01*
X55400303Y-43095010D01*
X55793629Y-42702370D01*
X56006757Y-42189100D01*
X56007242Y-41633339D01*
X55795010Y-41119697D01*
X55402370Y-40726371D01*
X54889100Y-40513243D01*
X54333339Y-40512758D01*
X53819697Y-40724990D01*
X53426371Y-41117630D01*
X53340051Y-41325512D01*
X53255010Y-41119697D01*
X52862370Y-40726371D01*
X52349100Y-40513243D01*
X51793339Y-40512758D01*
X51279697Y-40724990D01*
X50886371Y-41117630D01*
X50800051Y-41325512D01*
X50715010Y-41119697D01*
X50322370Y-40726371D01*
X49809100Y-40513243D01*
X49253339Y-40512758D01*
X48739697Y-40724990D01*
X48346371Y-41117630D01*
X48260051Y-41325512D01*
X48175010Y-41119697D01*
X47782370Y-40726371D01*
X47327149Y-40537347D01*
X47025400Y-40235598D01*
X46778838Y-40070851D01*
X46487999Y-40012999D01*
X18282001Y-40012999D01*
X17991161Y-40070851D01*
X17744600Y-40235598D01*
X17022600Y-40957598D01*
X16857853Y-41204160D01*
X16800001Y-41494999D01*
X16800001Y-45366760D01*
X16664540Y-45214651D01*
X16204402Y-44992080D01*
X16002000Y-45114910D01*
X16002000Y-46133000D01*
X16022000Y-46133000D01*
X16022000Y-46387000D01*
X16002000Y-46387000D01*
X16002000Y-46407000D01*
X15748000Y-46407000D01*
X15748000Y-46387000D01*
X14730776Y-46387000D01*
X14607090Y-46589400D01*
X14745522Y-46923633D01*
X14857930Y-47049856D01*
X14742191Y-47127191D01*
X14601843Y-47337235D01*
X14552560Y-47585000D01*
X12800000Y-47585000D01*
X12800000Y-45930600D01*
X14607090Y-45930600D01*
X14730776Y-46133000D01*
X15748000Y-46133000D01*
X15748000Y-45114910D01*
X15545598Y-44992080D01*
X15085460Y-45214651D01*
X14745522Y-45596367D01*
X14607090Y-45930600D01*
X12800000Y-45930600D01*
X12800000Y-20040907D01*
X19530000Y-20040907D01*
X19530000Y-20599093D01*
X19624009Y-21071707D01*
X19891723Y-21472370D01*
X20292386Y-21740084D01*
X20765000Y-21834093D01*
X21237614Y-21740084D01*
X21638277Y-21472370D01*
X21767410Y-21279109D01*
X21935875Y-21501933D01*
X22355624Y-21748286D01*
X22447391Y-21763462D01*
X22638000Y-21638731D01*
X22638000Y-20447000D01*
X22618000Y-20447000D01*
X22618000Y-20193000D01*
X22638000Y-20193000D01*
X22638000Y-19001269D01*
X22892000Y-19001269D01*
X22892000Y-20193000D01*
X22912000Y-20193000D01*
X22912000Y-20447000D01*
X22892000Y-20447000D01*
X22892000Y-21638731D01*
X23082609Y-21763462D01*
X23174376Y-21748286D01*
X23594125Y-21501933D01*
X23609497Y-21481601D01*
X23707191Y-21627809D01*
X23917235Y-21768157D01*
X24165000Y-21817440D01*
X25365000Y-21817440D01*
X25612765Y-21768157D01*
X25822809Y-21627809D01*
X25963157Y-21417765D01*
X26012440Y-21170000D01*
X26012440Y-20040907D01*
X29055000Y-20040907D01*
X29055000Y-20599093D01*
X29149009Y-21071707D01*
X29416723Y-21472370D01*
X29817386Y-21740084D01*
X30290000Y-21834093D01*
X30762614Y-21740084D01*
X31163277Y-21472370D01*
X31292410Y-21279109D01*
X31460875Y-21501933D01*
X31880624Y-21748286D01*
X31972391Y-21763462D01*
X32163000Y-21638731D01*
X32163000Y-20447000D01*
X32143000Y-20447000D01*
X32143000Y-20193000D01*
X32163000Y-20193000D01*
X32163000Y-19001269D01*
X32417000Y-19001269D01*
X32417000Y-20193000D01*
X32437000Y-20193000D01*
X32437000Y-20447000D01*
X32417000Y-20447000D01*
X32417000Y-21638731D01*
X32607609Y-21763462D01*
X32699376Y-21748286D01*
X33119125Y-21501933D01*
X33134497Y-21481601D01*
X33232191Y-21627809D01*
X33442235Y-21768157D01*
X33690000Y-21817440D01*
X34890000Y-21817440D01*
X35137765Y-21768157D01*
X35347809Y-21627809D01*
X35488157Y-21417765D01*
X35537440Y-21170000D01*
X35537440Y-20040907D01*
X38580000Y-20040907D01*
X38580000Y-20599093D01*
X38674009Y-21071707D01*
X38941723Y-21472370D01*
X39342386Y-21740084D01*
X39815000Y-21834093D01*
X40287614Y-21740084D01*
X40688277Y-21472370D01*
X40817410Y-21279109D01*
X40985875Y-21501933D01*
X41405624Y-21748286D01*
X41497391Y-21763462D01*
X41688000Y-21638731D01*
X41688000Y-20447000D01*
X41668000Y-20447000D01*
X41668000Y-20193000D01*
X41688000Y-20193000D01*
X41688000Y-19001269D01*
X41942000Y-19001269D01*
X41942000Y-20193000D01*
X41962000Y-20193000D01*
X41962000Y-20447000D01*
X41942000Y-20447000D01*
X41942000Y-21638731D01*
X42132609Y-21763462D01*
X42224376Y-21748286D01*
X42644125Y-21501933D01*
X42659497Y-21481601D01*
X42757191Y-21627809D01*
X42967235Y-21768157D01*
X43215000Y-21817440D01*
X44415000Y-21817440D01*
X44662765Y-21768157D01*
X44872809Y-21627809D01*
X45013157Y-21417765D01*
X45062440Y-21170000D01*
X45062440Y-20040907D01*
X48105000Y-20040907D01*
X48105000Y-20599093D01*
X48199009Y-21071707D01*
X48466723Y-21472370D01*
X48867386Y-21740084D01*
X49340000Y-21834093D01*
X49812614Y-21740084D01*
X50213277Y-21472370D01*
X50342410Y-21279109D01*
X50510875Y-21501933D01*
X50930624Y-21748286D01*
X51022391Y-21763462D01*
X51213000Y-21638731D01*
X51213000Y-20447000D01*
X51193000Y-20447000D01*
X51193000Y-20193000D01*
X51213000Y-20193000D01*
X51213000Y-19001269D01*
X51467000Y-19001269D01*
X51467000Y-20193000D01*
X51487000Y-20193000D01*
X51487000Y-20447000D01*
X51467000Y-20447000D01*
X51467000Y-21638731D01*
X51657609Y-21763462D01*
X51749376Y-21748286D01*
X52169125Y-21501933D01*
X52184497Y-21481601D01*
X52282191Y-21627809D01*
X52492235Y-21768157D01*
X52740000Y-21817440D01*
X53940000Y-21817440D01*
X54187765Y-21768157D01*
X54397809Y-21627809D01*
X54538157Y-21417765D01*
X54587440Y-21170000D01*
X54587440Y-20040907D01*
X57630000Y-20040907D01*
X57630000Y-20599093D01*
X57724009Y-21071707D01*
X57991723Y-21472370D01*
X58392386Y-21740084D01*
X58865000Y-21834093D01*
X59337614Y-21740084D01*
X59738277Y-21472370D01*
X59867410Y-21279109D01*
X60035875Y-21501933D01*
X60455624Y-21748286D01*
X60547391Y-21763462D01*
X60738000Y-21638731D01*
X60738000Y-20447000D01*
X60718000Y-20447000D01*
X60718000Y-20193000D01*
X60738000Y-20193000D01*
X60738000Y-19001269D01*
X60992000Y-19001269D01*
X60992000Y-20193000D01*
X61012000Y-20193000D01*
X61012000Y-20447000D01*
X60992000Y-20447000D01*
X60992000Y-21638731D01*
X61182609Y-21763462D01*
X61274376Y-21748286D01*
X61694125Y-21501933D01*
X61709497Y-21481601D01*
X61807191Y-21627809D01*
X62017235Y-21768157D01*
X62265000Y-21817440D01*
X63465000Y-21817440D01*
X63712765Y-21768157D01*
X63922809Y-21627809D01*
X64063157Y-21417765D01*
X64112440Y-21170000D01*
X64112440Y-20040907D01*
X67155000Y-20040907D01*
X67155000Y-20599093D01*
X67249009Y-21071707D01*
X67516723Y-21472370D01*
X67917386Y-21740084D01*
X68390000Y-21834093D01*
X68862614Y-21740084D01*
X69263277Y-21472370D01*
X69392410Y-21279109D01*
X69560875Y-21501933D01*
X69980624Y-21748286D01*
X70072391Y-21763462D01*
X70263000Y-21638731D01*
X70263000Y-20447000D01*
X70243000Y-20447000D01*
X70243000Y-20193000D01*
X70263000Y-20193000D01*
X70263000Y-19001269D01*
X70072391Y-18876538D01*
X69980624Y-18891714D01*
X69560875Y-19138067D01*
X69392410Y-19360891D01*
X69263277Y-19167630D01*
X68862614Y-18899916D01*
X68390000Y-18805907D01*
X67917386Y-18899916D01*
X67516723Y-19167630D01*
X67249009Y-19568293D01*
X67155000Y-20040907D01*
X64112440Y-20040907D01*
X64112440Y-19470000D01*
X64063157Y-19222235D01*
X63922809Y-19012191D01*
X63712765Y-18871843D01*
X63465000Y-18822560D01*
X62265000Y-18822560D01*
X62017235Y-18871843D01*
X61807191Y-19012191D01*
X61709497Y-19158399D01*
X61694125Y-19138067D01*
X61274376Y-18891714D01*
X61182609Y-18876538D01*
X60992000Y-19001269D01*
X60738000Y-19001269D01*
X60547391Y-18876538D01*
X60455624Y-18891714D01*
X60035875Y-19138067D01*
X59867410Y-19360891D01*
X59738277Y-19167630D01*
X59337614Y-18899916D01*
X58865000Y-18805907D01*
X58392386Y-18899916D01*
X57991723Y-19167630D01*
X57724009Y-19568293D01*
X57630000Y-20040907D01*
X54587440Y-20040907D01*
X54587440Y-19470000D01*
X54538157Y-19222235D01*
X54397809Y-19012191D01*
X54187765Y-18871843D01*
X53940000Y-18822560D01*
X52740000Y-18822560D01*
X52492235Y-18871843D01*
X52282191Y-19012191D01*
X52184497Y-19158399D01*
X52169125Y-19138067D01*
X51749376Y-18891714D01*
X51657609Y-18876538D01*
X51467000Y-19001269D01*
X51213000Y-19001269D01*
X51022391Y-18876538D01*
X50930624Y-18891714D01*
X50510875Y-19138067D01*
X50342410Y-19360891D01*
X50213277Y-19167630D01*
X49812614Y-18899916D01*
X49340000Y-18805907D01*
X48867386Y-18899916D01*
X48466723Y-19167630D01*
X48199009Y-19568293D01*
X48105000Y-20040907D01*
X45062440Y-20040907D01*
X45062440Y-19470000D01*
X45013157Y-19222235D01*
X44872809Y-19012191D01*
X44662765Y-18871843D01*
X44415000Y-18822560D01*
X43215000Y-18822560D01*
X42967235Y-18871843D01*
X42757191Y-19012191D01*
X42659497Y-19158399D01*
X42644125Y-19138067D01*
X42224376Y-18891714D01*
X42132609Y-18876538D01*
X41942000Y-19001269D01*
X41688000Y-19001269D01*
X41497391Y-18876538D01*
X41405624Y-18891714D01*
X40985875Y-19138067D01*
X40817410Y-19360891D01*
X40688277Y-19167630D01*
X40287614Y-18899916D01*
X39815000Y-18805907D01*
X39342386Y-18899916D01*
X38941723Y-19167630D01*
X38674009Y-19568293D01*
X38580000Y-20040907D01*
X35537440Y-20040907D01*
X35537440Y-19470000D01*
X35488157Y-19222235D01*
X35347809Y-19012191D01*
X35137765Y-18871843D01*
X34890000Y-18822560D01*
X33690000Y-18822560D01*
X33442235Y-18871843D01*
X33232191Y-19012191D01*
X33134497Y-19158399D01*
X33119125Y-19138067D01*
X32699376Y-18891714D01*
X32607609Y-18876538D01*
X32417000Y-19001269D01*
X32163000Y-19001269D01*
X31972391Y-18876538D01*
X31880624Y-18891714D01*
X31460875Y-19138067D01*
X31292410Y-19360891D01*
X31163277Y-19167630D01*
X30762614Y-18899916D01*
X30290000Y-18805907D01*
X29817386Y-18899916D01*
X29416723Y-19167630D01*
X29149009Y-19568293D01*
X29055000Y-20040907D01*
X26012440Y-20040907D01*
X26012440Y-19470000D01*
X25963157Y-19222235D01*
X25822809Y-19012191D01*
X25612765Y-18871843D01*
X25365000Y-18822560D01*
X24165000Y-18822560D01*
X23917235Y-18871843D01*
X23707191Y-19012191D01*
X23609497Y-19158399D01*
X23594125Y-19138067D01*
X23174376Y-18891714D01*
X23082609Y-18876538D01*
X22892000Y-19001269D01*
X22638000Y-19001269D01*
X22447391Y-18876538D01*
X22355624Y-18891714D01*
X21935875Y-19138067D01*
X21767410Y-19360891D01*
X21638277Y-19167630D01*
X21237614Y-18899916D01*
X20765000Y-18805907D01*
X20292386Y-18899916D01*
X19891723Y-19167630D01*
X19624009Y-19568293D01*
X19530000Y-20040907D01*
X12800000Y-20040907D01*
X12800000Y-18143403D01*
X88644682Y-18143403D01*
X88923455Y-18818086D01*
X89439199Y-19334730D01*
X90113395Y-19614681D01*
X90843403Y-19615318D01*
X91518086Y-19336545D01*
X92034730Y-18820801D01*
X92132560Y-18585201D01*
X92132560Y-18980000D01*
X92181843Y-19227765D01*
X92322191Y-19437809D01*
X92532235Y-19578157D01*
X92780000Y-19627440D01*
X95180000Y-19627440D01*
X95427765Y-19578157D01*
X95637809Y-19437809D01*
X95778157Y-19227765D01*
X95827440Y-18980000D01*
X95827440Y-18143403D01*
X98169682Y-18143403D01*
X98448455Y-18818086D01*
X98964199Y-19334730D01*
X99638395Y-19614681D01*
X100368403Y-19615318D01*
X101043086Y-19336545D01*
X101559730Y-18820801D01*
X101657560Y-18585201D01*
X101657560Y-18980000D01*
X101706843Y-19227765D01*
X101847191Y-19437809D01*
X102057235Y-19578157D01*
X102305000Y-19627440D01*
X104705000Y-19627440D01*
X104952765Y-19578157D01*
X105162809Y-19437809D01*
X105303157Y-19227765D01*
X105352440Y-18980000D01*
X105352440Y-16580000D01*
X105303157Y-16332235D01*
X105162809Y-16122191D01*
X104952765Y-15981843D01*
X104705000Y-15932560D01*
X102305000Y-15932560D01*
X102057235Y-15981843D01*
X101847191Y-16122191D01*
X101706843Y-16332235D01*
X101657560Y-16580000D01*
X101657560Y-16974288D01*
X101561545Y-16741914D01*
X101045801Y-16225270D01*
X100371605Y-15945319D01*
X99641597Y-15944682D01*
X98966914Y-16223455D01*
X98450270Y-16739199D01*
X98170319Y-17413395D01*
X98169682Y-18143403D01*
X95827440Y-18143403D01*
X95827440Y-16580000D01*
X95778157Y-16332235D01*
X95637809Y-16122191D01*
X95427765Y-15981843D01*
X95180000Y-15932560D01*
X92780000Y-15932560D01*
X92532235Y-15981843D01*
X92322191Y-16122191D01*
X92181843Y-16332235D01*
X92132560Y-16580000D01*
X92132560Y-16974288D01*
X92036545Y-16741914D01*
X91520801Y-16225270D01*
X90846605Y-15945319D01*
X90116597Y-15944682D01*
X89441914Y-16223455D01*
X88925270Y-16739199D01*
X88645319Y-17413395D01*
X88644682Y-18143403D01*
X12800000Y-18143403D01*
X12800000Y-15240000D01*
X13110097Y-15240000D01*
X13272226Y-16055079D01*
X13733931Y-16746069D01*
X14424921Y-17207774D01*
X15240000Y-17369903D01*
X16055079Y-17207774D01*
X16746069Y-16746069D01*
X17207774Y-16055079D01*
X17369903Y-15240000D01*
X106430097Y-15240000D01*
X106594129Y-16064646D01*
X107061253Y-16763747D01*
X107760354Y-17230871D01*
X108585000Y-17394903D01*
X109409646Y-17230871D01*
X110108747Y-16763747D01*
X110575871Y-16064646D01*
X110739903Y-15240000D01*
X110575871Y-14415354D01*
X110108747Y-13716253D01*
X109409646Y-13249129D01*
X108585000Y-13085097D01*
X107760354Y-13249129D01*
X107061253Y-13716253D01*
X106594129Y-14415354D01*
X106430097Y-15240000D01*
X17369903Y-15240000D01*
X17207774Y-14424921D01*
X16746069Y-13733931D01*
X16055079Y-13272226D01*
X15240000Y-13110097D01*
X14424921Y-13272226D01*
X13733931Y-13733931D01*
X13272226Y-14424921D01*
X13110097Y-15240000D01*
X12800000Y-15240000D01*
X12800000Y-13407390D01*
X12854028Y-13135775D01*
X12966879Y-12966880D01*
X13135775Y-12854028D01*
X13407390Y-12800000D01*
X110417610Y-12800000D01*
X110689225Y-12854028D01*
M02*
