M48
;DRILL file {KiCad (2017-10-17 revision 537804b)-master} date 2017 December 04, Monday 11:48:37
;FORMAT={3:3/ absolute / metric / suppress leading zeros}
FMAT,2
METRIC,TZ
T1C0.400
T2C0.750
T3C0.762
T4C0.800
T5C0.900
T6C1.200
T7C2.000
%
G90
G05
M71
T1
X28575Y-52705
X30480Y-58420
X34885Y-46950
X34925Y-45720
X34925Y-48255
X42526Y-53994
X48754Y-49530
X54469Y-49530
X55879Y-39014
X56376Y-38089
X60325Y-49530
X74507Y-34667
X100965Y-24130
T2
X68390Y-20320
X70390Y-20320
X72390Y-20320
X20765Y-20320
X22765Y-20320
X24765Y-20320
X39815Y-20320
X41815Y-20320
X43815Y-20320
X30290Y-20320
X32290Y-20320
X34290Y-20320
X53340Y-20320
X77820Y-20320
X79820Y-20320
X81820Y-20320
X83820Y-20320
X49340Y-20320
X51340Y-20320
X58865Y-20320
X60865Y-20320
X62865Y-20320
T3
X89535Y-36195
X89535Y-53975
X92075Y-36195
X92075Y-53975
X94615Y-36195
X94615Y-53975
X97155Y-36195
X97155Y-53975
X99695Y-36195
X99695Y-53975
X102235Y-36195
X102235Y-53975
X104775Y-36195
X104775Y-53975
X107315Y-36195
X107315Y-53975
X69469Y-30988
X72009Y-30988
X74549Y-30988
X77089Y-30988
X19050Y-26670
X19050Y-41910
X21590Y-26670
X21590Y-41910
X24130Y-26670
X24130Y-41910
X26670Y-26670
X26670Y-41910
X29210Y-26670
X29210Y-41910
X31750Y-26670
X31750Y-41910
X34290Y-26670
X34290Y-41910
X36830Y-26670
X36830Y-41910
X39370Y-26670
X39370Y-41910
X41910Y-26670
X41910Y-41910
X44450Y-26670
X44450Y-41910
X46990Y-26670
X46990Y-41910
X49530Y-26670
X49530Y-41910
X52070Y-26670
X52070Y-41910
X54610Y-26670
X54610Y-41910
T4
X15875Y-46260
X15875Y-48260
T5
X24120Y-50405
X25140Y-47865
X26160Y-50405
X27180Y-47865
X28200Y-50405
X29220Y-47865
T6
X90480Y-17780
X93980Y-17780
X100005Y-17780
X103505Y-17780
T7
X20670Y-52705
X32670Y-52705
T0
M30
