G04 #@! TF.GenerationSoftware,KiCad,Pcbnew,(2017-10-17 revision 537804b)-master*
G04 #@! TF.CreationDate,2017-12-04T11:47:58+01:00*
G04 #@! TF.ProjectId,TrainAutomator,547261696E4175746F6D61746F722E6B,rev?*
G04 #@! TF.SameCoordinates,Original*
G04 #@! TF.FileFunction,Soldermask,Top*
G04 #@! TF.FilePolarity,Negative*
%FSLAX46Y46*%
G04 Gerber Fmt 4.6, Leading zero omitted, Abs format (unit mm)*
G04 Created by KiCad (PCBNEW (2017-10-17 revision 537804b)-master) date 2017 December 04, Monday 11:47:58*
%MOMM*%
%LPD*%
G01*
G04 APERTURE LIST*
%ADD10C,1.924000*%
%ADD11R,1.924000X1.924000*%
%ADD12R,1.650000X1.900000*%
%ADD13R,1.900000X1.650000*%
%ADD14R,2.400000X2.100000*%
%ADD15C,2.800000*%
%ADD16R,2.800000X2.800000*%
%ADD17O,1.750000X1.750000*%
%ADD18R,1.750000X1.750000*%
%ADD19R,1.600000X2.100000*%
%ADD20O,1.600000X2.100000*%
%ADD21R,1.900000X1.700000*%
%ADD22R,2.400000X2.000000*%
%ADD23R,1.000000X1.950000*%
%ADD24R,9.800000X11.200000*%
%ADD25R,5.000000X1.500000*%
%ADD26C,4.400000*%
%ADD27C,1.900000*%
G04 APERTURE END LIST*
D10*
X89535000Y-36195000D03*
X92075000Y-36195000D03*
X94615000Y-36195000D03*
X97155000Y-36195000D03*
X99695000Y-36195000D03*
X102235000Y-36195000D03*
X104775000Y-36195000D03*
X107315000Y-36195000D03*
X107315000Y-53975000D03*
X104775000Y-53975000D03*
X102235000Y-53975000D03*
X99695000Y-53975000D03*
X97155000Y-53975000D03*
X94615000Y-53975000D03*
X92075000Y-53975000D03*
D11*
X89535000Y-53975000D03*
D12*
X107315000Y-33000000D03*
X107315000Y-30500000D03*
X107315000Y-24150000D03*
X107315000Y-26650000D03*
D13*
X50185000Y-56515000D03*
X52685000Y-56515000D03*
X47189230Y-45646866D03*
X44689230Y-45646866D03*
X52904230Y-45646866D03*
X50404230Y-45646866D03*
X58619230Y-45646866D03*
X56119230Y-45646866D03*
D14*
X71244230Y-26342866D03*
X75244230Y-26342866D03*
X62989230Y-26342866D03*
X66989230Y-26342866D03*
D15*
X100005000Y-17780000D03*
D16*
X103505000Y-17780000D03*
X93980000Y-17780000D03*
D15*
X90480000Y-17780000D03*
D17*
X15875000Y-46260000D03*
D18*
X15875000Y-48260000D03*
D19*
X62865000Y-20320000D03*
D20*
X60865000Y-20320000D03*
X58865000Y-20320000D03*
X77820000Y-20320000D03*
X79820000Y-20320000D03*
X81820000Y-20320000D03*
D19*
X83820000Y-20320000D03*
D20*
X49340000Y-20320000D03*
X51340000Y-20320000D03*
D19*
X53340000Y-20320000D03*
X43815000Y-20320000D03*
D20*
X41815000Y-20320000D03*
X39815000Y-20320000D03*
X30290000Y-20320000D03*
X32290000Y-20320000D03*
D19*
X34290000Y-20320000D03*
X24765000Y-20320000D03*
D20*
X22765000Y-20320000D03*
X20765000Y-20320000D03*
X68390000Y-20320000D03*
X70390000Y-20320000D03*
D19*
X72390000Y-20320000D03*
D21*
X89455000Y-57785000D03*
X92155000Y-57785000D03*
X38655000Y-56515000D03*
X41355000Y-56515000D03*
X47070000Y-56515000D03*
X44370000Y-56515000D03*
X44589230Y-49202866D03*
X47289230Y-49202866D03*
X50304230Y-49202866D03*
X53004230Y-49202866D03*
X56019230Y-49202866D03*
X58719230Y-49202866D03*
X44589230Y-53012866D03*
X47289230Y-53012866D03*
X50304230Y-53012866D03*
X53004230Y-53012866D03*
X56019230Y-53012866D03*
X58719230Y-53012866D03*
X80149230Y-23802866D03*
X82849230Y-23802866D03*
X71894230Y-23802866D03*
X74594230Y-23802866D03*
X66339230Y-23802866D03*
X63639230Y-23802866D03*
D22*
X61654230Y-58092866D03*
X67054230Y-58092866D03*
X75944230Y-58092866D03*
X70544230Y-58092866D03*
X79434230Y-58092866D03*
X84834230Y-58092866D03*
D23*
X41910000Y-52230000D03*
X40640000Y-52230000D03*
X39370000Y-52230000D03*
X38100000Y-52230000D03*
X38100000Y-46830000D03*
X39370000Y-46830000D03*
X40640000Y-46830000D03*
X41910000Y-46830000D03*
D24*
X93399000Y-28448000D03*
D25*
X102549000Y-25908000D03*
X102549000Y-30988000D03*
D11*
X69469000Y-30988000D03*
D10*
X72009000Y-30988000D03*
X74549000Y-30988000D03*
X77089000Y-30988000D03*
D14*
X79499230Y-26342866D03*
X83499230Y-26342866D03*
D11*
X54610000Y-26670000D03*
D10*
X52070000Y-26670000D03*
X49530000Y-26670000D03*
X46990000Y-26670000D03*
X44450000Y-26670000D03*
X41910000Y-26670000D03*
X39370000Y-26670000D03*
X36830000Y-26670000D03*
X34290000Y-26670000D03*
X31750000Y-26670000D03*
X29210000Y-26670000D03*
X26670000Y-26670000D03*
X24130000Y-26670000D03*
X21590000Y-26670000D03*
X19050000Y-26670000D03*
X19050000Y-41910000D03*
X21590000Y-41910000D03*
X24130000Y-41910000D03*
X26670000Y-41910000D03*
X29210000Y-41910000D03*
X31750000Y-41910000D03*
X34290000Y-41910000D03*
X36830000Y-41910000D03*
X39370000Y-41910000D03*
X41910000Y-41910000D03*
X44450000Y-41910000D03*
X46990000Y-41910000D03*
X49530000Y-41910000D03*
X52070000Y-41910000D03*
X54610000Y-41910000D03*
D26*
X32670000Y-52705000D03*
X20670000Y-52705000D03*
D27*
X26160000Y-50405000D03*
X27180000Y-47865000D03*
X28200000Y-50405000D03*
X29220000Y-47865000D03*
X25140000Y-47865000D03*
X24120000Y-50405000D03*
M02*
